<svg xmlns="http://www.w3.org/2000/svg" xmlns:xlink="http://www.w3.org/1999/xlink" width="559" zoomAndPan="magnify" viewBox="0 0 419.25 297.749993" height="397" preserveAspectRatio="xMidYMid meet" version="1.0"><defs><g/><clipPath id="138555c45c"><path d="M 0 0.140625 L 418.5 0.140625 L 418.5 297.359375 L 0 297.359375 Z M 0 0.140625 " clip-rule="nonzero"/></clipPath><clipPath id="269f0ec02c"><path d="M 229.222656 233.5 L 271.148438 233.5 L 271.148438 275.421875 L 229.222656 275.421875 Z M 229.222656 233.5 " clip-rule="nonzero"/></clipPath><clipPath id="1936bde3fc"><path d="M 250.265625 233.5 C 238.644531 233.5 229.222656 242.921875 229.222656 254.542969 C 229.222656 266.164062 238.644531 275.585938 250.265625 275.585938 C 261.890625 275.585938 271.3125 266.164062 271.3125 254.542969 C 271.3125 242.921875 261.890625 233.5 250.265625 233.5 Z M 250.265625 233.5 " clip-rule="nonzero"/></clipPath><clipPath id="3f537a15ba"><path d="M 95.707031 70.375 L 271.324219 70.375 L 271.324219 97.9375 L 95.707031 97.9375 Z M 95.707031 70.375 " clip-rule="nonzero"/></clipPath><clipPath id="37adcd8971"><path d="M 0.707031 0.375 L 176.324219 0.375 L 176.324219 27.9375 L 0.707031 27.9375 Z M 0.707031 0.375 " clip-rule="nonzero"/></clipPath><clipPath id="82d667013d"><rect x="0" width="177" y="0" height="28"/></clipPath><clipPath id="102b53f18d"><path d="M 299.253906 233.5 L 341.179688 233.5 L 341.179688 275.421875 L 299.253906 275.421875 Z M 299.253906 233.5 " clip-rule="nonzero"/></clipPath><clipPath id="e72a295840"><path d="M 320.300781 233.5 C 308.675781 233.5 299.253906 242.921875 299.253906 254.542969 C 299.253906 266.164062 308.675781 275.585938 320.300781 275.585938 C 331.921875 275.585938 341.34375 266.164062 341.34375 254.542969 C 341.34375 242.921875 331.921875 233.5 320.300781 233.5 Z M 320.300781 233.5 " clip-rule="nonzero"/></clipPath><clipPath id="f928ebd0b2"><path d="M 25.132812 101.429688 L 67.058594 101.429688 L 67.058594 143.355469 L 25.132812 143.355469 Z M 25.132812 101.429688 " clip-rule="nonzero"/></clipPath><clipPath id="c4d58ca503"><path d="M 46.175781 101.429688 C 34.554688 101.429688 25.132812 110.851562 25.132812 122.472656 C 25.132812 134.097656 34.554688 143.519531 46.175781 143.519531 C 57.800781 143.519531 67.222656 134.097656 67.222656 122.472656 C 67.222656 110.851562 57.800781 101.429688 46.175781 101.429688 Z M 46.175781 101.429688 " clip-rule="nonzero"/></clipPath><clipPath id="895ed69c3a"><path d="M 25.132812 165.019531 L 67.058594 165.019531 L 67.058594 206.945312 L 25.132812 206.945312 Z M 25.132812 165.019531 " clip-rule="nonzero"/></clipPath><clipPath id="4851928700"><path d="M 46.175781 165.019531 C 34.554688 165.019531 25.132812 174.441406 25.132812 186.0625 C 25.132812 197.6875 34.554688 207.109375 46.175781 207.109375 C 57.800781 207.109375 67.222656 197.6875 67.222656 186.0625 C 67.222656 174.441406 57.800781 165.019531 46.175781 165.019531 Z M 46.175781 165.019531 " clip-rule="nonzero"/></clipPath><clipPath id="15195e0468"><path d="M 6.574219 237.761719 L 63.757812 237.761719 L 63.757812 294.949219 L 6.574219 294.949219 Z M 6.574219 237.761719 " clip-rule="nonzero"/></clipPath><clipPath id="a03219751d"><path d="M 35.164062 237.761719 L 63.757812 266.355469 L 35.164062 294.949219 L 6.574219 266.355469 Z M 35.164062 237.761719 " clip-rule="nonzero"/></clipPath><clipPath id="2d9d8a6d12"><path d="M 0.574219 0.761719 L 57.757812 0.761719 L 57.757812 57.949219 L 0.574219 57.949219 Z M 0.574219 0.761719 " clip-rule="nonzero"/></clipPath><clipPath id="1ffa32c3f7"><path d="M 29.164062 0.761719 L 57.757812 29.355469 L 29.164062 57.949219 L 0.574219 29.355469 Z M 29.164062 0.761719 " clip-rule="nonzero"/></clipPath><clipPath id="5d5b30beb9"><rect x="0" width="58" y="0" height="58"/></clipPath><clipPath id="5e67f6d38d"><path d="M 299 91 L 354 91 L 354 149 L 299 149 Z M 299 91 " clip-rule="nonzero"/></clipPath><clipPath id="bf21b50aa3"><path d="M 319.664062 91.601562 L 353.175781 131.894531 L 333.027344 148.648438 L 299.519531 108.355469 Z M 319.664062 91.601562 " clip-rule="nonzero"/></clipPath><clipPath id="f6592ade12"><path d="M 319.671875 91.605469 L 353.019531 131.710938 L 332.613281 148.679688 L 299.261719 108.578125 Z M 319.671875 91.605469 " clip-rule="nonzero"/></clipPath><clipPath id="3b3c952ef7"><path d="M 321 115 L 328 115 L 328 122 L 321 122 Z M 321 115 " clip-rule="nonzero"/></clipPath><clipPath id="7306290f85"><path d="M 319.664062 91.601562 L 353.175781 131.894531 L 333.027344 148.648438 L 299.519531 108.355469 Z M 319.664062 91.601562 " clip-rule="nonzero"/></clipPath><clipPath id="e040d78d4a"><path d="M 324 118 L 331 118 L 331 125 L 324 125 Z M 324 118 " clip-rule="nonzero"/></clipPath><clipPath id="6926531029"><path d="M 319.664062 91.601562 L 353.175781 131.894531 L 333.027344 148.648438 L 299.519531 108.355469 Z M 319.664062 91.601562 " clip-rule="nonzero"/></clipPath></defs><g clip-path="url(#138555c45c)"><path fill="#ffffff" d="M 0 0.140625 L 418.5 0.140625 L 418.5 297.359375 L 0 297.359375 Z M 0 0.140625 " fill-opacity="1" fill-rule="nonzero"/><path fill="#ffffff" d="M 0 0.140625 L 418.5 0.140625 L 418.5 297.359375 L 0 297.359375 Z M 0 0.140625 " fill-opacity="1" fill-rule="nonzero"/></g><g clip-path="url(#269f0ec02c)"><g clip-path="url(#1936bde3fc)"><path stroke-linecap="butt" transform="matrix(0.748661, 0, 0, 0.748661, 229.222865, 233.49872)" fill="none" stroke-linejoin="miter" d="M 28.107206 0.0017094 C 12.584695 0.0017094 -0.000279151 12.586683 -0.000279151 28.109194 C -0.000279151 43.631705 12.584695 56.216679 28.107206 56.216679 C 43.634934 56.216679 56.219908 43.631705 56.219908 28.109194 C 56.219908 12.586683 43.634934 0.0017094 28.107206 0.0017094 Z M 28.107206 0.0017094 " stroke="#000000" stroke-width="2" stroke-opacity="1" stroke-miterlimit="4"/></g></g><g fill="#000000" fill-opacity="1"><g transform="translate(246.488852, 257.455862)"><g><path d="M 0.359375 0 L 0.359375 -0.484375 L 1.71875 -0.484375 L 1.71875 -4.296875 L 1.640625 -4.3125 C 1.421875 -4.207031 1.226562 -4.125 1.0625 -4.0625 C 0.894531 -4.007812 0.679688 -3.953125 0.421875 -3.890625 L 0.421875 -4.4375 C 0.679688 -4.488281 0.9375 -4.5625 1.1875 -4.65625 C 1.4375 -4.75 1.660156 -4.859375 1.859375 -4.984375 L 2.28125 -4.984375 L 2.28125 -0.484375 L 3.5 -0.484375 L 3.5 0 Z M 0.359375 0 "/></g></g></g><g fill="#000000" fill-opacity="1"><g transform="translate(250.20571, 257.455862)"><g><path d="M 0.296875 -0.234375 C 0.296875 -0.503906 0.328125 -0.722656 0.390625 -0.890625 C 0.453125 -1.054688 0.554688 -1.210938 0.703125 -1.359375 C 0.847656 -1.503906 1.078125 -1.695312 1.390625 -1.9375 L 1.9375 -2.328125 C 2.144531 -2.472656 2.3125 -2.609375 2.4375 -2.734375 C 2.5625 -2.859375 2.660156 -2.992188 2.734375 -3.140625 C 2.804688 -3.285156 2.84375 -3.453125 2.84375 -3.640625 C 2.84375 -3.929688 2.765625 -4.148438 2.609375 -4.296875 C 2.453125 -4.453125 2.207031 -4.53125 1.875 -4.53125 C 1.613281 -4.53125 1.378906 -4.46875 1.171875 -4.34375 C 0.972656 -4.21875 0.8125 -4.046875 0.6875 -3.828125 L 0.609375 -3.8125 L 0.25 -4.1875 C 0.425781 -4.457031 0.648438 -4.671875 0.921875 -4.828125 C 1.191406 -4.984375 1.507812 -5.0625 1.875 -5.0625 C 2.226562 -5.0625 2.519531 -5 2.75 -4.875 C 2.988281 -4.757812 3.164062 -4.59375 3.28125 -4.375 C 3.394531 -4.164062 3.453125 -3.921875 3.453125 -3.640625 C 3.453125 -3.410156 3.40625 -3.195312 3.3125 -3 C 3.21875 -2.8125 3.082031 -2.632812 2.90625 -2.46875 C 2.738281 -2.300781 2.523438 -2.125 2.265625 -1.9375 L 1.71875 -1.53125 C 1.507812 -1.375 1.347656 -1.238281 1.234375 -1.125 C 1.128906 -1.019531 1.050781 -0.914062 1 -0.8125 C 0.945312 -0.71875 0.921875 -0.609375 0.921875 -0.484375 L 3.453125 -0.484375 L 3.453125 0 L 0.296875 0 Z M 0.296875 -0.234375 "/></g></g></g><g clip-path="url(#3f537a15ba)"><g transform="matrix(1, 0, 0, 1, 95, 70)"><g clip-path="url(#82d667013d)"><g clip-path="url(#37adcd8971)"><path fill="#a6a6a6" d="M 0.707031 0.375 L 176.320312 0.375 L 176.320312 27.9375 L 0.707031 27.9375 Z M 0.707031 0.375 " fill-opacity="1" fill-rule="nonzero"/></g></g></g></g><g fill="#000000" fill-opacity="1"><g transform="translate(177.708124, 86.843929)"><g><path d="M 0.75 0 L 0.75 -4.984375 L 2.640625 -4.984375 C 2.953125 -4.984375 3.210938 -4.929688 3.421875 -4.828125 C 3.640625 -4.734375 3.800781 -4.597656 3.90625 -4.421875 C 4.007812 -4.242188 4.0625 -4.03125 4.0625 -3.78125 C 4.0625 -3.5625 4.003906 -3.363281 3.890625 -3.1875 C 3.773438 -3.007812 3.609375 -2.875 3.390625 -2.78125 L 3.390625 -2.703125 C 3.722656 -2.617188 3.972656 -2.46875 4.140625 -2.25 C 4.316406 -2.039062 4.40625 -1.773438 4.40625 -1.453125 C 4.40625 -0.984375 4.269531 -0.625 4 -0.375 C 3.726562 -0.125 3.320312 0 2.78125 0 Z M 2.609375 -2.890625 C 2.890625 -2.890625 3.101562 -2.960938 3.25 -3.109375 C 3.40625 -3.253906 3.484375 -3.453125 3.484375 -3.703125 C 3.484375 -3.972656 3.410156 -4.171875 3.265625 -4.296875 C 3.117188 -4.429688 2.898438 -4.5 2.609375 -4.5 L 1.34375 -4.5 L 1.34375 -2.890625 Z M 2.734375 -0.484375 C 3.453125 -0.484375 3.8125 -0.804688 3.8125 -1.453125 C 3.8125 -2.085938 3.453125 -2.40625 2.734375 -2.40625 L 1.34375 -2.40625 L 1.34375 -0.484375 Z M 2.734375 -0.484375 "/></g></g></g><g fill="#000000" fill-opacity="1"><g transform="translate(182.505945, 86.843929)"><g><path d="M 1.546875 0.078125 C 1.179688 0.078125 0.894531 -0.0195312 0.6875 -0.21875 C 0.476562 -0.414062 0.375 -0.691406 0.375 -1.046875 C 0.375 -1.265625 0.414062 -1.453125 0.5 -1.609375 C 0.59375 -1.765625 0.738281 -1.890625 0.9375 -1.984375 C 1.132812 -2.078125 1.382812 -2.148438 1.6875 -2.203125 C 1.96875 -2.253906 2.175781 -2.304688 2.3125 -2.359375 C 2.457031 -2.421875 2.550781 -2.484375 2.59375 -2.546875 C 2.644531 -2.617188 2.671875 -2.710938 2.671875 -2.828125 C 2.671875 -2.992188 2.613281 -3.117188 2.5 -3.203125 C 2.382812 -3.296875 2.195312 -3.34375 1.9375 -3.34375 C 1.695312 -3.34375 1.488281 -3.296875 1.3125 -3.203125 C 1.132812 -3.109375 0.972656 -2.96875 0.828125 -2.78125 L 0.765625 -2.78125 L 0.484375 -3.171875 C 0.648438 -3.367188 0.851562 -3.523438 1.09375 -3.640625 C 1.34375 -3.765625 1.625 -3.828125 1.9375 -3.828125 C 2.382812 -3.828125 2.710938 -3.726562 2.921875 -3.53125 C 3.128906 -3.34375 3.234375 -3.078125 3.234375 -2.734375 L 3.234375 -0.734375 C 3.234375 -0.523438 3.320312 -0.421875 3.5 -0.421875 C 3.5625 -0.421875 3.617188 -0.429688 3.671875 -0.453125 L 3.71875 -0.4375 L 3.78125 -0.0625 C 3.738281 -0.03125 3.679688 -0.0078125 3.609375 0 C 3.546875 0.0195312 3.476562 0.03125 3.40625 0.03125 C 3.207031 0.03125 3.050781 -0.015625 2.9375 -0.109375 C 2.832031 -0.203125 2.765625 -0.335938 2.734375 -0.515625 L 2.671875 -0.515625 C 2.566406 -0.316406 2.421875 -0.164062 2.234375 -0.0625 C 2.054688 0.03125 1.828125 0.078125 1.546875 0.078125 Z M 1.671875 -0.375 C 1.878906 -0.375 2.0625 -0.421875 2.21875 -0.515625 C 2.375 -0.609375 2.488281 -0.742188 2.5625 -0.921875 C 2.644531 -1.097656 2.6875 -1.300781 2.6875 -1.53125 L 2.6875 -2.015625 L 2.625 -2.015625 C 2.539062 -1.960938 2.4375 -1.914062 2.3125 -1.875 C 2.195312 -1.832031 2.03125 -1.796875 1.8125 -1.765625 C 1.59375 -1.734375 1.421875 -1.6875 1.296875 -1.625 C 1.171875 -1.5625 1.078125 -1.484375 1.015625 -1.390625 C 0.960938 -1.296875 0.9375 -1.179688 0.9375 -1.046875 C 0.9375 -0.828125 1 -0.660156 1.125 -0.546875 C 1.257812 -0.429688 1.441406 -0.375 1.671875 -0.375 Z M 1.671875 -0.375 "/></g></g></g><g fill="#000000" fill-opacity="1"><g transform="translate(186.396716, 86.843929)"><g><path d="M 0.65625 0 L 0.65625 -3.765625 L 1.1875 -3.765625 L 1.1875 -3.171875 L 1.25 -3.15625 C 1.425781 -3.582031 1.757812 -3.796875 2.25 -3.796875 C 2.5 -3.796875 2.691406 -3.75 2.828125 -3.65625 L 2.671875 -3.1875 L 2.609375 -3.171875 C 2.460938 -3.242188 2.304688 -3.28125 2.140625 -3.28125 C 1.835938 -3.28125 1.601562 -3.164062 1.4375 -2.9375 C 1.28125 -2.71875 1.203125 -2.351562 1.203125 -1.84375 L 1.203125 0 Z M 0.65625 0 "/></g></g></g><g clip-path="url(#102b53f18d)"><g clip-path="url(#e72a295840)"><path stroke-linecap="butt" transform="matrix(0.748661, 0, 0, 0.748661, 299.255671, 233.49872)" fill="none" stroke-linejoin="miter" d="M 28.110345 0.0017094 C 12.582616 0.0017094 -0.0023575 12.586683 -0.0023575 28.109194 C -0.0023575 43.631705 12.582616 56.216679 28.110345 56.216679 C 43.632856 56.216679 56.21783 43.631705 56.21783 28.109194 C 56.21783 12.586683 43.632856 0.0017094 28.110345 0.0017094 Z M 28.110345 0.0017094 " stroke="#000000" stroke-width="2" stroke-opacity="1" stroke-miterlimit="4"/></g></g><g fill="#000000" fill-opacity="1"><g transform="translate(316.580147, 257.455862)"><g><path d="M 0.359375 0 L 0.359375 -0.484375 L 1.71875 -0.484375 L 1.71875 -4.296875 L 1.640625 -4.3125 C 1.421875 -4.207031 1.226562 -4.125 1.0625 -4.0625 C 0.894531 -4.007812 0.679688 -3.953125 0.421875 -3.890625 L 0.421875 -4.4375 C 0.679688 -4.488281 0.9375 -4.5625 1.1875 -4.65625 C 1.4375 -4.75 1.660156 -4.859375 1.859375 -4.984375 L 2.28125 -4.984375 L 2.28125 -0.484375 L 3.5 -0.484375 L 3.5 0 Z M 0.359375 0 "/></g></g></g><g fill="#000000" fill-opacity="1"><g transform="translate(320.297005, 257.455862)"><g><path d="M 0.359375 0 L 0.359375 -0.484375 L 1.71875 -0.484375 L 1.71875 -4.296875 L 1.640625 -4.3125 C 1.421875 -4.207031 1.226562 -4.125 1.0625 -4.0625 C 0.894531 -4.007812 0.679688 -3.953125 0.421875 -3.890625 L 0.421875 -4.4375 C 0.679688 -4.488281 0.9375 -4.5625 1.1875 -4.65625 C 1.4375 -4.75 1.660156 -4.859375 1.859375 -4.984375 L 2.28125 -4.984375 L 2.28125 -0.484375 L 3.5 -0.484375 L 3.5 0 Z M 0.359375 0 "/></g></g></g><g clip-path="url(#f928ebd0b2)"><g clip-path="url(#c4d58ca503)"><path stroke-linecap="butt" transform="matrix(0.748661, 0, 0, 0.748661, 25.132702, 101.429741)" fill="none" stroke-linejoin="miter" d="M 28.107633 -0.0000716017 C 12.585122 -0.0000716017 0.000147864 12.584902 0.000147864 28.107413 C 0.000147864 43.635142 12.585122 56.220116 28.107633 56.220116 C 43.635361 56.220116 56.220335 43.635142 56.220335 28.107413 C 56.220335 12.584902 43.635361 -0.0000716017 28.107633 -0.0000716017 Z M 28.107633 -0.0000716017 " stroke="#000000" stroke-width="2" stroke-opacity="1" stroke-miterlimit="4"/></g></g><g fill="#000000" fill-opacity="1"><g transform="translate(42.199826, 125.386883)"><g><path d="M 0.359375 0 L 0.359375 -0.484375 L 1.71875 -0.484375 L 1.71875 -4.296875 L 1.640625 -4.3125 C 1.421875 -4.207031 1.226562 -4.125 1.0625 -4.0625 C 0.894531 -4.007812 0.679688 -3.953125 0.421875 -3.890625 L 0.421875 -4.4375 C 0.679688 -4.488281 0.9375 -4.5625 1.1875 -4.65625 C 1.4375 -4.75 1.660156 -4.859375 1.859375 -4.984375 L 2.28125 -4.984375 L 2.28125 -0.484375 L 3.5 -0.484375 L 3.5 0 Z M 0.359375 0 "/></g></g></g><g fill="#000000" fill-opacity="1"><g transform="translate(45.916683, 125.386883)"><g><path d="M 3.125 0 L 2.5625 0 L 2.5625 -1.1875 L 0.234375 -1.1875 L 0.234375 -1.65625 L 2.421875 -4.984375 L 3.125 -4.984375 L 3.125 -1.65625 L 3.984375 -1.65625 L 3.984375 -1.1875 L 3.125 -1.1875 Z M 0.921875 -1.734375 L 0.953125 -1.65625 L 2.5625 -1.65625 L 2.5625 -4.171875 L 2.484375 -4.1875 Z M 0.921875 -1.734375 "/></g></g></g><g clip-path="url(#895ed69c3a)"><g clip-path="url(#4851928700)"><path stroke-linecap="butt" transform="matrix(0.748661, 0, 0, 0.748661, 25.132702, 165.019925)" fill="none" stroke-linejoin="miter" d="M 28.107633 -0.000526491 C 12.585122 -0.000526491 0.000147864 12.584447 0.000147864 28.106958 C 0.000147864 43.634687 12.585122 56.219661 28.107633 56.219661 C 43.635361 56.219661 56.220335 43.634687 56.220335 28.106958 C 56.220335 12.584447 43.635361 -0.000526491 28.107633 -0.000526491 Z M 28.107633 -0.000526491 " stroke="#000000" stroke-width="2" stroke-opacity="1" stroke-miterlimit="4"/></g></g><g fill="#000000" fill-opacity="1"><g transform="translate(42.281711, 188.977067)"><g><path d="M 0.359375 0 L 0.359375 -0.484375 L 1.71875 -0.484375 L 1.71875 -4.296875 L 1.640625 -4.3125 C 1.421875 -4.207031 1.226562 -4.125 1.0625 -4.0625 C 0.894531 -4.007812 0.679688 -3.953125 0.421875 -3.890625 L 0.421875 -4.4375 C 0.679688 -4.488281 0.9375 -4.5625 1.1875 -4.65625 C 1.4375 -4.75 1.660156 -4.859375 1.859375 -4.984375 L 2.28125 -4.984375 L 2.28125 -0.484375 L 3.5 -0.484375 L 3.5 0 Z M 0.359375 0 "/></g></g></g><g fill="#000000" fill-opacity="1"><g transform="translate(45.998568, 188.977067)"><g><path d="M 1.96875 0.078125 C 1.488281 0.078125 1.101562 -0.03125 0.8125 -0.25 C 0.53125 -0.46875 0.347656 -0.769531 0.265625 -1.15625 L 0.703125 -1.359375 L 0.78125 -1.34375 C 0.863281 -1.050781 0.992188 -0.828125 1.171875 -0.671875 C 1.359375 -0.523438 1.625 -0.453125 1.96875 -0.453125 C 2.320312 -0.453125 2.59375 -0.53125 2.78125 -0.6875 C 2.96875 -0.851562 3.0625 -1.09375 3.0625 -1.40625 C 3.0625 -1.71875 2.96875 -1.953125 2.78125 -2.109375 C 2.59375 -2.273438 2.296875 -2.359375 1.890625 -2.359375 L 1.34375 -2.359375 L 1.34375 -2.84375 L 1.828125 -2.84375 C 2.140625 -2.84375 2.390625 -2.921875 2.578125 -3.078125 C 2.765625 -3.234375 2.859375 -3.453125 2.859375 -3.734375 C 2.859375 -4.003906 2.773438 -4.207031 2.609375 -4.34375 C 2.453125 -4.476562 2.226562 -4.546875 1.9375 -4.546875 C 1.4375 -4.546875 1.082031 -4.347656 0.875 -3.953125 L 0.796875 -3.9375 L 0.46875 -4.296875 C 0.601562 -4.523438 0.796875 -4.707031 1.046875 -4.84375 C 1.296875 -4.988281 1.59375 -5.0625 1.9375 -5.0625 C 2.257812 -5.0625 2.53125 -5.007812 2.75 -4.90625 C 2.976562 -4.8125 3.148438 -4.671875 3.265625 -4.484375 C 3.378906 -4.296875 3.4375 -4.070312 3.4375 -3.8125 C 3.4375 -3.5625 3.363281 -3.34375 3.21875 -3.15625 C 3.082031 -2.976562 2.894531 -2.835938 2.65625 -2.734375 L 2.65625 -2.65625 C 2.988281 -2.570312 3.238281 -2.421875 3.40625 -2.203125 C 3.570312 -1.992188 3.65625 -1.726562 3.65625 -1.40625 C 3.65625 -0.9375 3.515625 -0.570312 3.234375 -0.3125 C 2.953125 -0.0507812 2.53125 0.078125 1.96875 0.078125 Z M 1.96875 0.078125 "/></g></g></g><g clip-path="url(#15195e0468)"><g clip-path="url(#a03219751d)"><g transform="matrix(1, 0, 0, 1, 6, 237)"><g clip-path="url(#5d5b30beb9)"><g clip-path="url(#2d9d8a6d12)"><g clip-path="url(#1ffa32c3f7)"><path fill="#d9d9d9" d="M 0.574219 0.761719 L 57.757812 0.761719 L 57.757812 57.949219 L 0.574219 57.949219 Z M 0.574219 0.761719 " fill-opacity="1" fill-rule="nonzero"/></g></g></g></g></g></g><g fill="#000000" fill-opacity="1"><g transform="translate(30.635023, 269.206735)"><g><path d="M 2.359375 -4.984375 C 2.867188 -4.984375 3.304688 -4.890625 3.671875 -4.703125 C 4.035156 -4.523438 4.3125 -4.25 4.5 -3.875 C 4.695312 -3.507812 4.796875 -3.050781 4.796875 -2.5 C 4.796875 -1.9375 4.695312 -1.46875 4.5 -1.09375 C 4.3125 -0.726562 4.035156 -0.453125 3.671875 -0.265625 C 3.304688 -0.0859375 2.867188 0 2.359375 0 L 0.75 0 L 0.75 -4.984375 Z M 2.3125 -0.5 C 2.726562 -0.5 3.070312 -0.5625 3.34375 -0.6875 C 3.613281 -0.820312 3.816406 -1.035156 3.953125 -1.328125 C 4.097656 -1.617188 4.171875 -2.007812 4.171875 -2.5 C 4.171875 -2.976562 4.097656 -3.363281 3.953125 -3.65625 C 3.816406 -3.945312 3.613281 -4.15625 3.34375 -4.28125 C 3.070312 -4.414062 2.726562 -4.484375 2.3125 -4.484375 L 1.34375 -4.484375 L 1.34375 -0.5 Z M 2.3125 -0.5 "/></g></g></g><g fill="#000000" fill-opacity="1"><g transform="translate(35.804502, 269.206735)"><g><path d="M 1.640625 0.078125 C 1.398438 0.078125 1.175781 0.0390625 0.96875 -0.03125 C 0.757812 -0.113281 0.582031 -0.21875 0.4375 -0.34375 C 0.300781 -0.46875 0.195312 -0.609375 0.125 -0.765625 L 0.4375 -1.15625 L 0.515625 -1.15625 C 0.617188 -0.945312 0.765625 -0.78125 0.953125 -0.65625 C 1.148438 -0.53125 1.378906 -0.46875 1.640625 -0.46875 C 1.859375 -0.46875 2.035156 -0.5 2.171875 -0.5625 C 2.304688 -0.632812 2.40625 -0.75 2.46875 -0.90625 C 2.539062 -1.070312 2.578125 -1.289062 2.578125 -1.5625 L 2.578125 -4.984375 L 3.15625 -4.984375 L 3.15625 -1.5625 C 3.15625 -1 3.03125 -0.582031 2.78125 -0.3125 C 2.53125 -0.0507812 2.148438 0.078125 1.640625 0.078125 Z M 1.640625 0.078125 "/></g></g></g><g fill="#000000" fill-opacity="1"><g transform="translate(106.935503, 196.663592)"><g><path d="M 4.0625 -8.5625 C 4.925781 -8.5625 5.671875 -8.40625 6.296875 -8.09375 C 6.921875 -7.78125 7.398438 -7.304688 7.734375 -6.671875 C 8.066406 -6.035156 8.234375 -5.238281 8.234375 -4.28125 C 8.234375 -3.320312 8.066406 -2.523438 7.734375 -1.890625 C 7.398438 -1.253906 6.921875 -0.78125 6.296875 -0.46875 C 5.671875 -0.15625 4.925781 0 4.0625 0 L 1.296875 0 L 1.296875 -8.5625 Z M 3.96875 -0.859375 C 4.675781 -0.859375 5.265625 -0.96875 5.734375 -1.1875 C 6.203125 -1.40625 6.554688 -1.765625 6.796875 -2.265625 C 7.035156 -2.773438 7.15625 -3.445312 7.15625 -4.28125 C 7.15625 -5.113281 7.035156 -5.78125 6.796875 -6.28125 C 6.554688 -6.78125 6.203125 -7.140625 5.734375 -7.359375 C 5.265625 -7.585938 4.675781 -7.703125 3.96875 -7.703125 L 2.296875 -7.703125 L 2.296875 -0.859375 Z M 3.96875 -0.859375 "/></g></g><g transform="translate(116.024712, 196.663592)"><g><path d="M 2.65625 0.125 C 2.019531 0.125 1.523438 -0.0390625 1.171875 -0.375 C 0.816406 -0.707031 0.640625 -1.179688 0.640625 -1.796875 C 0.640625 -2.179688 0.71875 -2.503906 0.875 -2.765625 C 1.03125 -3.023438 1.273438 -3.238281 1.609375 -3.40625 C 1.941406 -3.570312 2.375 -3.703125 2.90625 -3.796875 C 3.375 -3.867188 3.726562 -3.953125 3.96875 -4.046875 C 4.21875 -4.148438 4.382812 -4.257812 4.46875 -4.375 C 4.550781 -4.5 4.59375 -4.65625 4.59375 -4.84375 C 4.59375 -5.132812 4.488281 -5.359375 4.28125 -5.515625 C 4.082031 -5.671875 3.765625 -5.75 3.328125 -5.75 C 2.910156 -5.75 2.550781 -5.664062 2.25 -5.5 C 1.945312 -5.34375 1.671875 -5.101562 1.421875 -4.78125 L 1.3125 -4.78125 L 0.84375 -5.4375 C 1.113281 -5.789062 1.457031 -6.066406 1.875 -6.265625 C 2.300781 -6.472656 2.785156 -6.578125 3.328125 -6.578125 C 4.085938 -6.578125 4.644531 -6.410156 5 -6.078125 C 5.363281 -5.742188 5.546875 -5.28125 5.546875 -4.6875 L 5.546875 -1.265625 C 5.546875 -0.910156 5.695312 -0.734375 6 -0.734375 C 6.101562 -0.734375 6.203125 -0.75 6.296875 -0.78125 L 6.375 -0.765625 L 6.484375 -0.09375 C 6.421875 -0.0507812 6.328125 -0.0195312 6.203125 0 C 6.085938 0.03125 5.972656 0.046875 5.859375 0.046875 C 5.503906 0.046875 5.234375 -0.03125 5.046875 -0.1875 C 4.867188 -0.34375 4.753906 -0.570312 4.703125 -0.875 L 4.578125 -0.890625 C 4.398438 -0.546875 4.15625 -0.289062 3.84375 -0.125 C 3.53125 0.0390625 3.132812 0.125 2.65625 0.125 Z M 2.875 -0.640625 C 3.226562 -0.640625 3.535156 -0.722656 3.796875 -0.890625 C 4.066406 -1.054688 4.269531 -1.285156 4.40625 -1.578125 C 4.550781 -1.878906 4.625 -2.226562 4.625 -2.625 L 4.625 -3.453125 L 4.515625 -3.46875 C 4.367188 -3.363281 4.191406 -3.273438 3.984375 -3.203125 C 3.773438 -3.140625 3.488281 -3.082031 3.125 -3.03125 C 2.75 -2.976562 2.445312 -2.898438 2.21875 -2.796875 C 2 -2.691406 1.84375 -2.554688 1.75 -2.390625 C 1.65625 -2.234375 1.609375 -2.035156 1.609375 -1.796875 C 1.609375 -1.421875 1.71875 -1.132812 1.9375 -0.9375 C 2.164062 -0.738281 2.476562 -0.640625 2.875 -0.640625 Z M 2.875 -0.640625 "/></g></g><g transform="translate(122.69832, 196.663592)"><g><path d="M 1.125 0 L 1.125 -6.453125 L 2.03125 -6.453125 L 2.03125 -5.4375 L 2.15625 -5.40625 C 2.363281 -5.789062 2.632812 -6.082031 2.96875 -6.28125 C 3.300781 -6.476562 3.710938 -6.578125 4.203125 -6.578125 C 4.972656 -6.578125 5.53125 -6.378906 5.875 -5.984375 C 6.226562 -5.585938 6.40625 -4.976562 6.40625 -4.15625 L 6.40625 0 L 5.453125 0 L 5.453125 -4.125 C 5.453125 -4.519531 5.398438 -4.832031 5.296875 -5.0625 C 5.203125 -5.300781 5.050781 -5.472656 4.84375 -5.578125 C 4.632812 -5.691406 4.359375 -5.75 4.015625 -5.75 C 3.429688 -5.75 2.960938 -5.554688 2.609375 -5.171875 C 2.253906 -4.785156 2.078125 -4.164062 2.078125 -3.3125 L 2.078125 0 Z M 1.125 0 "/></g></g><g transform="translate(130.126438, 196.663592)"><g><path d="M 3.703125 0.125 C 3.128906 0.125 2.617188 -0.00390625 2.171875 -0.265625 C 1.722656 -0.523438 1.363281 -0.90625 1.09375 -1.40625 C 0.832031 -1.914062 0.703125 -2.519531 0.703125 -3.21875 C 0.703125 -3.925781 0.832031 -4.53125 1.09375 -5.03125 C 1.363281 -5.539062 1.722656 -5.925781 2.171875 -6.1875 C 2.617188 -6.445312 3.128906 -6.578125 3.703125 -6.578125 C 4.390625 -6.578125 4.929688 -6.445312 5.328125 -6.1875 C 5.734375 -5.9375 6.023438 -5.59375 6.203125 -5.15625 L 5.5625 -4.6875 L 5.4375 -4.6875 C 5.257812 -5.039062 5.035156 -5.300781 4.765625 -5.46875 C 4.492188 -5.632812 4.140625 -5.71875 3.703125 -5.71875 C 3.304688 -5.71875 2.957031 -5.625 2.65625 -5.4375 C 2.351562 -5.25 2.117188 -4.96875 1.953125 -4.59375 C 1.785156 -4.21875 1.703125 -3.757812 1.703125 -3.21875 C 1.703125 -2.6875 1.785156 -2.234375 1.953125 -1.859375 C 2.128906 -1.484375 2.363281 -1.203125 2.65625 -1.015625 C 2.957031 -0.828125 3.304688 -0.734375 3.703125 -0.734375 C 4.148438 -0.734375 4.519531 -0.832031 4.8125 -1.03125 C 5.113281 -1.238281 5.347656 -1.5625 5.515625 -2 L 5.640625 -2 L 6.265625 -1.625 C 6.097656 -1.082031 5.796875 -0.65625 5.359375 -0.34375 C 4.929688 -0.03125 4.378906 0.125 3.703125 0.125 Z M 3.703125 0.125 "/></g></g><g transform="translate(136.77665, 196.663592)"><g><path d="M 6.15625 -3 L 1.71875 -3 C 1.738281 -2.21875 1.921875 -1.644531 2.265625 -1.28125 C 2.617188 -0.914062 3.101562 -0.734375 3.71875 -0.734375 C 4.175781 -0.734375 4.546875 -0.8125 4.828125 -0.96875 C 5.109375 -1.132812 5.328125 -1.394531 5.484375 -1.75 L 5.609375 -1.75 L 6.234375 -1.375 C 6.046875 -0.90625 5.742188 -0.535156 5.328125 -0.265625 C 4.921875 -0.00390625 4.382812 0.125 3.71875 0.125 C 3.09375 0.125 2.554688 0.00390625 2.109375 -0.234375 C 1.660156 -0.484375 1.3125 -0.859375 1.0625 -1.359375 C 0.820312 -1.859375 0.703125 -2.476562 0.703125 -3.21875 C 0.703125 -3.957031 0.828125 -4.578125 1.078125 -5.078125 C 1.335938 -5.578125 1.6875 -5.953125 2.125 -6.203125 C 2.570312 -6.453125 3.082031 -6.578125 3.65625 -6.578125 C 4.476562 -6.578125 5.125 -6.34375 5.59375 -5.875 C 6.0625 -5.40625 6.296875 -4.710938 6.296875 -3.796875 C 6.296875 -3.441406 6.285156 -3.203125 6.265625 -3.078125 Z M 5.359375 -3.796875 C 5.335938 -4.484375 5.179688 -4.984375 4.890625 -5.296875 C 4.609375 -5.609375 4.195312 -5.765625 3.65625 -5.765625 C 3.09375 -5.765625 2.648438 -5.609375 2.328125 -5.296875 C 2.003906 -4.984375 1.804688 -4.484375 1.734375 -3.796875 Z M 5.359375 -3.796875 "/></g></g><g transform="translate(143.65497, 196.663592)"><g/></g><g transform="translate(146.591124, 196.663592)"><g><path d="M 6.3125 -8.5625 L 6.3125 -7.71875 L 2.296875 -7.71875 L 2.296875 -4.609375 L 5.921875 -4.609375 L 5.921875 -3.78125 L 2.296875 -3.78125 L 2.296875 0 L 1.296875 0 L 1.296875 -8.5625 Z M 6.3125 -8.5625 "/></g></g><g transform="translate(153.370012, 196.663592)"><g><path d="M 2.5625 0.125 C 2.113281 0.125 1.753906 -0.00390625 1.484375 -0.265625 C 1.222656 -0.523438 1.09375 -0.910156 1.09375 -1.421875 L 1.09375 -9.046875 L 2.046875 -9.046875 L 2.046875 -1.5 C 2.046875 -1.226562 2.097656 -1.03125 2.203125 -0.90625 C 2.304688 -0.789062 2.46875 -0.734375 2.6875 -0.734375 C 2.820312 -0.734375 2.957031 -0.753906 3.09375 -0.796875 L 3.171875 -0.765625 L 3.28125 -0.015625 C 3.21875 0.0234375 3.117188 0.0546875 2.984375 0.078125 C 2.859375 0.109375 2.71875 0.125 2.5625 0.125 Z M 2.5625 0.125 "/></g></g><g transform="translate(156.879359, 196.663592)"><g><path d="M 3.703125 0.125 C 3.097656 0.125 2.566406 -0.00390625 2.109375 -0.265625 C 1.660156 -0.523438 1.3125 -0.90625 1.0625 -1.40625 C 0.820312 -1.90625 0.703125 -2.507812 0.703125 -3.21875 C 0.703125 -3.9375 0.820312 -4.546875 1.0625 -5.046875 C 1.3125 -5.554688 1.660156 -5.9375 2.109375 -6.1875 C 2.566406 -6.445312 3.097656 -6.578125 3.703125 -6.578125 C 4.304688 -6.578125 4.832031 -6.445312 5.28125 -6.1875 C 5.738281 -5.9375 6.085938 -5.554688 6.328125 -5.046875 C 6.578125 -4.546875 6.703125 -3.9375 6.703125 -3.21875 C 6.703125 -2.507812 6.578125 -1.90625 6.328125 -1.40625 C 6.085938 -0.90625 5.738281 -0.523438 5.28125 -0.265625 C 4.832031 -0.00390625 4.304688 0.125 3.703125 0.125 Z M 3.703125 -0.734375 C 4.347656 -0.734375 4.835938 -0.9375 5.171875 -1.34375 C 5.515625 -1.75 5.6875 -2.375 5.6875 -3.21875 C 5.6875 -4.070312 5.515625 -4.703125 5.171875 -5.109375 C 4.835938 -5.515625 4.347656 -5.71875 3.703125 -5.71875 C 3.054688 -5.71875 2.5625 -5.515625 2.21875 -5.109375 C 1.875 -4.703125 1.703125 -4.070312 1.703125 -3.21875 C 1.703125 -2.375 1.875 -1.75 2.21875 -1.34375 C 2.5625 -0.9375 3.054688 -0.734375 3.703125 -0.734375 Z M 3.703125 -0.734375 "/></g></g><g transform="translate(164.284081, 196.663592)"><g><path d="M 3.703125 0.125 C 3.097656 0.125 2.566406 -0.00390625 2.109375 -0.265625 C 1.660156 -0.523438 1.3125 -0.90625 1.0625 -1.40625 C 0.820312 -1.90625 0.703125 -2.507812 0.703125 -3.21875 C 0.703125 -3.9375 0.820312 -4.546875 1.0625 -5.046875 C 1.3125 -5.554688 1.660156 -5.9375 2.109375 -6.1875 C 2.566406 -6.445312 3.097656 -6.578125 3.703125 -6.578125 C 4.304688 -6.578125 4.832031 -6.445312 5.28125 -6.1875 C 5.738281 -5.9375 6.085938 -5.554688 6.328125 -5.046875 C 6.578125 -4.546875 6.703125 -3.9375 6.703125 -3.21875 C 6.703125 -2.507812 6.578125 -1.90625 6.328125 -1.40625 C 6.085938 -0.90625 5.738281 -0.523438 5.28125 -0.265625 C 4.832031 -0.00390625 4.304688 0.125 3.703125 0.125 Z M 3.703125 -0.734375 C 4.347656 -0.734375 4.835938 -0.9375 5.171875 -1.34375 C 5.515625 -1.75 5.6875 -2.375 5.6875 -3.21875 C 5.6875 -4.070312 5.515625 -4.703125 5.171875 -5.109375 C 4.835938 -5.515625 4.347656 -5.71875 3.703125 -5.71875 C 3.054688 -5.71875 2.5625 -5.515625 2.21875 -5.109375 C 1.875 -4.703125 1.703125 -4.070312 1.703125 -3.21875 C 1.703125 -2.375 1.875 -1.75 2.21875 -1.34375 C 2.5625 -0.9375 3.054688 -0.734375 3.703125 -0.734375 Z M 3.703125 -0.734375 "/></g></g><g transform="translate(171.688803, 196.663592)"><g><path d="M 1.125 0 L 1.125 -6.453125 L 2.03125 -6.453125 L 2.03125 -5.4375 L 2.15625 -5.40625 C 2.457031 -6.144531 3.019531 -6.515625 3.84375 -6.515625 C 4.289062 -6.515625 4.625 -6.429688 4.84375 -6.265625 L 4.59375 -5.46875 L 4.484375 -5.4375 C 4.234375 -5.5625 3.96875 -5.625 3.6875 -5.625 C 3.164062 -5.625 2.765625 -5.429688 2.484375 -5.046875 C 2.210938 -4.660156 2.078125 -4.035156 2.078125 -3.171875 L 2.078125 0 Z M 1.125 0 "/></g></g></g><g clip-path="url(#5e67f6d38d)"><g clip-path="url(#bf21b50aa3)"><g clip-path="url(#f6592ade12)"><path stroke-linecap="butt" transform="matrix(0.478697, 0.575623, -0.575623, 0.478697, 319.670012, 91.605411)" fill="none" stroke-linejoin="miter" d="M 0.00165089 -0.00186399 L 69.6708 0.00287752 L 69.669388 35.452393 L 0.000914138 35.454999 Z M 0.00165089 -0.00186399 " stroke="#000000" stroke-width="2" stroke-opacity="1" stroke-miterlimit="4"/></g></g></g><g clip-path="url(#3b3c952ef7)"><g clip-path="url(#7306290f85)"><g fill="#000000" fill-opacity="1"><g transform="translate(321.744252, 118.687986)"><g><path d="M 0.234375 0.28125 L 0.609375 -0.03125 L 1.46875 1.015625 L 4.390625 -1.421875 L 4.359375 -1.484375 C 4.148438 -1.585938 3.96875 -1.6875 3.8125 -1.78125 C 3.65625 -1.875 3.46875 -2 3.25 -2.15625 L 3.671875 -2.515625 C 3.878906 -2.347656 4.097656 -2.195312 4.328125 -2.0625 C 4.566406 -1.925781 4.796875 -1.828125 5.015625 -1.765625 L 5.28125 -1.4375 L 1.828125 1.4375 L 2.609375 2.375 L 2.234375 2.6875 Z M 0.234375 0.28125 "/></g></g></g></g></g><g clip-path="url(#e040d78d4a)"><g clip-path="url(#6926531029)"><g fill="#000000" fill-opacity="1"><g transform="translate(324.120825, 121.54577)"><g><path d="M 1.25 1.625 C 0.957031 1.269531 0.800781 0.914062 0.78125 0.5625 C 0.757812 0.21875 0.867188 -0.109375 1.109375 -0.421875 L 1.546875 -0.203125 L 1.578125 -0.125 C 1.460938 0.0195312 1.390625 0.171875 1.359375 0.328125 C 1.328125 0.484375 1.332031 0.640625 1.375 0.796875 C 1.414062 0.953125 1.507812 1.113281 1.65625 1.28125 C 1.875 1.539062 2.117188 1.679688 2.390625 1.703125 C 2.671875 1.722656 2.960938 1.609375 3.265625 1.359375 C 3.554688 1.109375 3.71875 0.84375 3.75 0.5625 C 3.789062 0.289062 3.707031 0.03125 3.5 -0.21875 C 3.34375 -0.40625 3.175781 -0.523438 3 -0.578125 C 2.832031 -0.628906 2.625 -0.640625 2.375 -0.609375 L 2.109375 -1 L 4.265625 -2.65625 L 6.0625 -0.515625 L 5.6875 -0.203125 L 4.21875 -1.953125 L 2.90625 -0.9375 L 2.953125 -0.875 C 3.148438 -0.894531 3.335938 -0.863281 3.515625 -0.78125 C 3.691406 -0.695312 3.851562 -0.566406 4 -0.390625 C 4.195312 -0.160156 4.316406 0.078125 4.359375 0.328125 C 4.398438 0.585938 4.359375 0.84375 4.234375 1.09375 C 4.117188 1.351562 3.925781 1.597656 3.65625 1.828125 C 3.382812 2.054688 3.101562 2.195312 2.8125 2.25 C 2.519531 2.3125 2.238281 2.285156 1.96875 2.171875 C 1.695312 2.054688 1.457031 1.875 1.25 1.625 Z M 1.25 1.625 "/></g></g></g></g></g></svg>