<svg xmlns="http://www.w3.org/2000/svg" xmlns:xlink="http://www.w3.org/1999/xlink" width="559" zoomAndPan="magnify" viewBox="0 0 419.25 297.749993" height="397" preserveAspectRatio="xMidYMid meet" version="1.0"><defs><g/><clipPath id="c78691dc30"><path d="M 0 0.140625 L 418.5 0.140625 L 418.5 297.359375 L 0 297.359375 Z M 0 0.140625 " clip-rule="nonzero"/></clipPath><clipPath id="79ee477830"><path d="M 35.070312 8.628906 L 178.800781 8.628906 L 178.800781 36.195312 L 35.070312 36.195312 Z M 35.070312 8.628906 " clip-rule="nonzero"/></clipPath><clipPath id="154d417a0e"><path d="M 0.0703125 0.628906 L 143.800781 0.628906 L 143.800781 28.195312 L 0.0703125 28.195312 Z M 0.0703125 0.628906 " clip-rule="nonzero"/></clipPath><clipPath id="8b6ae25a2d"><rect x="0" width="144" y="0" height="29"/></clipPath><clipPath id="e624dec727"><path d="M 39.339844 205.023438 L 106.714844 205.023438 L 106.714844 236.46875 L 39.339844 236.46875 Z M 39.339844 205.023438 " clip-rule="nonzero"/></clipPath><clipPath id="42405d2354"><path d="M 148.332031 88.730469 L 178.792969 88.730469 L 178.792969 119.191406 L 148.332031 119.191406 Z M 148.332031 88.730469 " clip-rule="nonzero"/></clipPath><clipPath id="9c1eb05ee7"><path d="M 163.5625 88.730469 C 155.152344 88.730469 148.332031 95.546875 148.332031 103.960938 C 148.332031 112.371094 155.152344 119.191406 163.5625 119.191406 C 171.972656 119.191406 178.792969 112.371094 178.792969 103.960938 C 178.792969 95.546875 171.972656 88.730469 163.5625 88.730469 Z M 163.5625 88.730469 " clip-rule="nonzero"/></clipPath><clipPath id="00f17b5e50"><path d="M 148.332031 129.378906 L 178.792969 129.378906 L 178.792969 159.839844 L 148.332031 159.839844 Z M 148.332031 129.378906 " clip-rule="nonzero"/></clipPath><clipPath id="c2a2aa086a"><path d="M 163.5625 129.378906 C 155.152344 129.378906 148.332031 136.199219 148.332031 144.609375 C 148.332031 153.023438 155.152344 159.839844 163.5625 159.839844 C 171.972656 159.839844 178.792969 153.023438 178.792969 144.609375 C 178.792969 136.199219 171.972656 129.378906 163.5625 129.378906 Z M 163.5625 129.378906 " clip-rule="nonzero"/></clipPath><clipPath id="aa5c3b6935"><path d="M 148.332031 167.332031 L 178.792969 167.332031 L 178.792969 197.792969 L 148.332031 197.792969 Z M 148.332031 167.332031 " clip-rule="nonzero"/></clipPath><clipPath id="311a04d46c"><path d="M 163.5625 167.332031 C 155.152344 167.332031 148.332031 174.152344 148.332031 182.5625 C 148.332031 190.972656 155.152344 197.792969 163.5625 197.792969 C 171.972656 197.792969 178.792969 190.972656 178.792969 182.5625 C 178.792969 174.152344 171.972656 167.332031 163.5625 167.332031 Z M 163.5625 167.332031 " clip-rule="nonzero"/></clipPath><clipPath id="e80d458335"><path d="M 357.613281 83.363281 L 389.058594 83.363281 L 389.058594 129.03125 L 357.613281 129.03125 Z M 357.613281 83.363281 " clip-rule="nonzero"/></clipPath><clipPath id="bc16ddd2e1"><path d="M 281.828125 16.070312 L 333.988281 16.070312 L 333.988281 47.511719 L 281.828125 47.511719 Z M 281.828125 16.070312 " clip-rule="nonzero"/></clipPath><clipPath id="7084710da4"><path d="M 214.621094 16.070312 L 271.207031 16.070312 L 271.207031 47.511719 L 214.621094 47.511719 Z M 214.621094 16.070312 " clip-rule="nonzero"/></clipPath><clipPath id="7a19e7b01e"><path d="M 357.617188 144.617188 L 389.0625 144.617188 L 389.0625 190.039062 L 357.617188 190.039062 Z M 357.617188 144.617188 " clip-rule="nonzero"/></clipPath><clipPath id="cffb34c7dd"><path d="M 307.921875 205.023438 L 369.152344 205.023438 L 369.152344 236.46875 L 307.921875 236.46875 Z M 307.921875 205.023438 " clip-rule="nonzero"/></clipPath><clipPath id="d9a3468935"><path d="M 188.105469 74.6875 L 209.386719 74.6875 L 209.386719 214.148438 L 188.105469 214.148438 Z M 188.105469 74.6875 " clip-rule="nonzero"/></clipPath><clipPath id="4e2f718753"><path d="M 0.105469 0.6875 L 21.386719 0.6875 L 21.386719 140.148438 L 0.105469 140.148438 Z M 0.105469 0.6875 " clip-rule="nonzero"/></clipPath><clipPath id="d5a1f3c9f0"><rect x="0" width="22" y="0" height="141"/></clipPath><clipPath id="f2c2854b98"><path d="M 360.476562 0.140625 L 417.660156 0.140625 L 417.660156 57.328125 L 360.476562 57.328125 Z M 360.476562 0.140625 " clip-rule="nonzero"/></clipPath><clipPath id="f4d1521af8"><path d="M 389.066406 0.140625 L 417.660156 28.734375 L 389.066406 57.328125 L 360.476562 28.734375 Z M 389.066406 0.140625 " clip-rule="nonzero"/></clipPath><clipPath id="983c003bc7"><path d="M 0.476562 0.140625 L 57.660156 0.140625 L 57.660156 57.328125 L 0.476562 57.328125 Z M 0.476562 0.140625 " clip-rule="nonzero"/></clipPath><clipPath id="783dbcebcd"><path d="M 29.066406 0.140625 L 57.660156 28.734375 L 29.066406 57.328125 L 0.476562 28.734375 Z M 29.066406 0.140625 " clip-rule="nonzero"/></clipPath><clipPath id="aafedd7f69"><rect x="0" width="58" y="0" height="58"/></clipPath><clipPath id="2c1ea78d53"><path d="M 35.410156 103.296875 L 61.613281 103.296875 L 61.613281 155.453125 L 35.410156 155.453125 Z M 35.410156 103.296875 " clip-rule="nonzero"/></clipPath></defs><g clip-path="url(#c78691dc30)"><path fill="#ffffff" d="M 0 0.140625 L 418.5 0.140625 L 418.5 297.359375 L 0 297.359375 Z M 0 0.140625 " fill-opacity="1" fill-rule="nonzero"/><path fill="#ffffff" d="M 0 0.140625 L 418.5 0.140625 L 418.5 297.359375 L 0 297.359375 Z M 0 0.140625 " fill-opacity="1" fill-rule="nonzero"/></g><g clip-path="url(#79ee477830)"><g transform="matrix(1, 0, 0, 1, 35, 8)"><g clip-path="url(#8b6ae25a2d)"><g clip-path="url(#154d417a0e)"><path fill="#a6a6a6" d="M 0.0703125 0.628906 L 143.8125 0.628906 L 143.8125 28.195312 L 0.0703125 28.195312 Z M 0.0703125 0.628906 " fill-opacity="1" fill-rule="nonzero"/></g></g></g></g><g fill="#000000" fill-opacity="1"><g transform="translate(101.128156, 25.100354)"><g><path d="M 0.75 0 L 0.75 -4.984375 L 2.640625 -4.984375 C 2.953125 -4.984375 3.210938 -4.929688 3.421875 -4.828125 C 3.640625 -4.734375 3.800781 -4.597656 3.90625 -4.421875 C 4.007812 -4.242188 4.0625 -4.03125 4.0625 -3.78125 C 4.0625 -3.5625 4.003906 -3.363281 3.890625 -3.1875 C 3.773438 -3.007812 3.609375 -2.875 3.390625 -2.78125 L 3.390625 -2.703125 C 3.722656 -2.617188 3.972656 -2.46875 4.140625 -2.25 C 4.316406 -2.039062 4.40625 -1.773438 4.40625 -1.453125 C 4.40625 -0.984375 4.269531 -0.625 4 -0.375 C 3.726562 -0.125 3.320312 0 2.78125 0 Z M 2.609375 -2.890625 C 2.890625 -2.890625 3.101562 -2.960938 3.25 -3.109375 C 3.40625 -3.253906 3.484375 -3.453125 3.484375 -3.703125 C 3.484375 -3.972656 3.410156 -4.171875 3.265625 -4.296875 C 3.117188 -4.429688 2.898438 -4.5 2.609375 -4.5 L 1.34375 -4.5 L 1.34375 -2.890625 Z M 2.734375 -0.484375 C 3.453125 -0.484375 3.8125 -0.804688 3.8125 -1.453125 C 3.8125 -2.085938 3.453125 -2.40625 2.734375 -2.40625 L 1.34375 -2.40625 L 1.34375 -0.484375 Z M 2.734375 -0.484375 "/></g></g></g><g fill="#000000" fill-opacity="1"><g transform="translate(105.925977, 25.100354)"><g><path d="M 1.546875 0.078125 C 1.179688 0.078125 0.894531 -0.0195312 0.6875 -0.21875 C 0.476562 -0.414062 0.375 -0.691406 0.375 -1.046875 C 0.375 -1.265625 0.414062 -1.453125 0.5 -1.609375 C 0.59375 -1.765625 0.738281 -1.890625 0.9375 -1.984375 C 1.132812 -2.078125 1.382812 -2.148438 1.6875 -2.203125 C 1.96875 -2.253906 2.175781 -2.304688 2.3125 -2.359375 C 2.457031 -2.421875 2.550781 -2.484375 2.59375 -2.546875 C 2.644531 -2.617188 2.671875 -2.710938 2.671875 -2.828125 C 2.671875 -2.992188 2.613281 -3.117188 2.5 -3.203125 C 2.382812 -3.296875 2.195312 -3.34375 1.9375 -3.34375 C 1.695312 -3.34375 1.488281 -3.296875 1.3125 -3.203125 C 1.132812 -3.109375 0.972656 -2.96875 0.828125 -2.78125 L 0.765625 -2.78125 L 0.484375 -3.171875 C 0.648438 -3.367188 0.851562 -3.523438 1.09375 -3.640625 C 1.34375 -3.765625 1.625 -3.828125 1.9375 -3.828125 C 2.382812 -3.828125 2.710938 -3.726562 2.921875 -3.53125 C 3.128906 -3.34375 3.234375 -3.078125 3.234375 -2.734375 L 3.234375 -0.734375 C 3.234375 -0.523438 3.320312 -0.421875 3.5 -0.421875 C 3.5625 -0.421875 3.617188 -0.429688 3.671875 -0.453125 L 3.71875 -0.4375 L 3.78125 -0.0625 C 3.738281 -0.03125 3.679688 -0.0078125 3.609375 0 C 3.546875 0.0195312 3.476562 0.03125 3.40625 0.03125 C 3.207031 0.03125 3.050781 -0.015625 2.9375 -0.109375 C 2.832031 -0.203125 2.765625 -0.335938 2.734375 -0.515625 L 2.671875 -0.515625 C 2.566406 -0.316406 2.421875 -0.164062 2.234375 -0.0625 C 2.054688 0.03125 1.828125 0.078125 1.546875 0.078125 Z M 1.671875 -0.375 C 1.878906 -0.375 2.0625 -0.421875 2.21875 -0.515625 C 2.375 -0.609375 2.488281 -0.742188 2.5625 -0.921875 C 2.644531 -1.097656 2.6875 -1.300781 2.6875 -1.53125 L 2.6875 -2.015625 L 2.625 -2.015625 C 2.539062 -1.960938 2.4375 -1.914062 2.3125 -1.875 C 2.195312 -1.832031 2.03125 -1.796875 1.8125 -1.765625 C 1.59375 -1.734375 1.421875 -1.6875 1.296875 -1.625 C 1.171875 -1.5625 1.078125 -1.484375 1.015625 -1.390625 C 0.960938 -1.296875 0.9375 -1.179688 0.9375 -1.046875 C 0.9375 -0.828125 1 -0.660156 1.125 -0.546875 C 1.257812 -0.429688 1.441406 -0.375 1.671875 -0.375 Z M 1.671875 -0.375 "/></g></g></g><g fill="#000000" fill-opacity="1"><g transform="translate(109.816749, 25.100354)"><g><path d="M 0.65625 0 L 0.65625 -3.765625 L 1.1875 -3.765625 L 1.1875 -3.171875 L 1.25 -3.15625 C 1.425781 -3.582031 1.757812 -3.796875 2.25 -3.796875 C 2.5 -3.796875 2.691406 -3.75 2.828125 -3.65625 L 2.671875 -3.1875 L 2.609375 -3.171875 C 2.460938 -3.242188 2.304688 -3.28125 2.140625 -3.28125 C 1.835938 -3.28125 1.601562 -3.164062 1.4375 -2.9375 C 1.28125 -2.71875 1.203125 -2.351562 1.203125 -1.84375 L 1.203125 0 Z M 0.65625 0 "/></g></g></g><g clip-path="url(#e624dec727)"><path stroke-linecap="butt" transform="matrix(0.748661, 0, 0, 0.748661, 39.341015, 205.023966)" fill="none" stroke-linejoin="miter" d="M -0.0015644 -0.000705613 L 90.263788 -0.000705613 L 90.263788 42.236175 L -0.0015644 42.236175 Z M -0.0015644 -0.000705613 " stroke="#000000" stroke-width="2" stroke-opacity="1" stroke-miterlimit="4"/></g><g fill="#000000" fill-opacity="1"><g transform="translate(68.883721, 223.740483)"><g><path d="M 0.359375 0 L 0.359375 -0.484375 L 1.71875 -0.484375 L 1.71875 -4.296875 L 1.640625 -4.3125 C 1.421875 -4.207031 1.226562 -4.125 1.0625 -4.0625 C 0.894531 -4.007812 0.679688 -3.953125 0.421875 -3.890625 L 0.421875 -4.4375 C 0.679688 -4.488281 0.9375 -4.5625 1.1875 -4.65625 C 1.4375 -4.75 1.660156 -4.859375 1.859375 -4.984375 L 2.28125 -4.984375 L 2.28125 -0.484375 L 3.5 -0.484375 L 3.5 0 Z M 0.359375 0 "/></g></g></g><g fill="#000000" fill-opacity="1"><g transform="translate(72.470977, 223.740483)"><g><path d="M 2.453125 0.078125 C 2.085938 0.078125 1.757812 -0.0078125 1.46875 -0.1875 C 1.175781 -0.363281 0.941406 -0.644531 0.765625 -1.03125 C 0.597656 -1.414062 0.515625 -1.90625 0.515625 -2.5 C 0.515625 -3.082031 0.597656 -3.566406 0.765625 -3.953125 C 0.941406 -4.335938 1.175781 -4.617188 1.46875 -4.796875 C 1.757812 -4.972656 2.085938 -5.0625 2.453125 -5.0625 C 2.816406 -5.0625 3.144531 -4.972656 3.4375 -4.796875 C 3.726562 -4.617188 3.957031 -4.335938 4.125 -3.953125 C 4.300781 -3.566406 4.390625 -3.082031 4.390625 -2.5 C 4.390625 -1.90625 4.300781 -1.414062 4.125 -1.03125 C 3.957031 -0.644531 3.726562 -0.363281 3.4375 -0.1875 C 3.144531 -0.0078125 2.816406 0.078125 2.453125 0.078125 Z M 2.453125 -0.46875 C 2.890625 -0.46875 3.21875 -0.625 3.4375 -0.9375 C 3.664062 -1.25 3.78125 -1.769531 3.78125 -2.5 C 3.78125 -3.21875 3.664062 -3.734375 3.4375 -4.046875 C 3.21875 -4.359375 2.890625 -4.515625 2.453125 -4.515625 C 2.160156 -4.515625 1.914062 -4.445312 1.71875 -4.3125 C 1.53125 -4.1875 1.382812 -3.972656 1.28125 -3.671875 C 1.175781 -3.367188 1.125 -2.976562 1.125 -2.5 C 1.125 -2.007812 1.175781 -1.613281 1.28125 -1.3125 C 1.382812 -1.007812 1.53125 -0.789062 1.71875 -0.65625 C 1.914062 -0.53125 2.160156 -0.46875 2.453125 -0.46875 Z M 2.453125 -0.46875 "/></g></g></g><g clip-path="url(#42405d2354)"><g clip-path="url(#9c1eb05ee7)"><path stroke-linecap="butt" transform="matrix(0.748661, 0, 0, 0.748661, 148.33239, 88.729706)" fill="none" stroke-linejoin="miter" d="M 20.343141 0.0010193 C 9.109539 0.0010193 -0.000479583 9.10582 -0.000479583 20.34464 C -0.000479583 31.578242 9.109539 40.68826 20.343141 40.68826 C 31.576743 40.68826 40.686761 31.578242 40.686761 20.34464 C 40.686761 9.10582 31.576743 0.0010193 20.343141 0.0010193 Z M 20.343141 0.0010193 " stroke="#000000" stroke-width="2" stroke-opacity="1" stroke-miterlimit="4"/></g></g><g fill="#000000" fill-opacity="1"><g transform="translate(161.749793, 105.948901)"><g><path d="M 1.8125 0.0625 C 1.5 0.0625 1.226562 0.015625 1 -0.078125 C 0.78125 -0.179688 0.613281 -0.328125 0.5 -0.515625 C 0.382812 -0.703125 0.328125 -0.921875 0.328125 -1.171875 C 0.328125 -1.441406 0.394531 -1.664062 0.53125 -1.84375 C 0.664062 -2.03125 0.863281 -2.175781 1.125 -2.28125 L 1.125 -2.34375 C 0.9375 -2.457031 0.789062 -2.585938 0.6875 -2.734375 C 0.59375 -2.878906 0.546875 -3.050781 0.546875 -3.25 C 0.546875 -3.46875 0.597656 -3.65625 0.703125 -3.8125 C 0.804688 -3.976562 0.953125 -4.101562 1.140625 -4.1875 C 1.328125 -4.28125 1.550781 -4.328125 1.8125 -4.328125 C 2.0625 -4.328125 2.28125 -4.28125 2.46875 -4.1875 C 2.65625 -4.101562 2.800781 -3.976562 2.90625 -3.8125 C 3.007812 -3.65625 3.0625 -3.46875 3.0625 -3.25 C 3.0625 -3.050781 3.007812 -2.878906 2.90625 -2.734375 C 2.8125 -2.585938 2.671875 -2.457031 2.484375 -2.34375 L 2.484375 -2.28125 C 2.742188 -2.175781 2.941406 -2.03125 3.078125 -1.84375 C 3.210938 -1.664062 3.28125 -1.441406 3.28125 -1.171875 C 3.28125 -0.921875 3.222656 -0.703125 3.109375 -0.515625 C 2.992188 -0.328125 2.820312 -0.179688 2.59375 -0.078125 C 2.375 0.015625 2.113281 0.0625 1.8125 0.0625 Z M 1.8125 -2.484375 C 1.957031 -2.484375 2.085938 -2.507812 2.203125 -2.5625 C 2.316406 -2.625 2.40625 -2.707031 2.46875 -2.8125 C 2.539062 -2.914062 2.578125 -3.039062 2.578125 -3.1875 C 2.578125 -3.34375 2.539062 -3.472656 2.46875 -3.578125 C 2.40625 -3.691406 2.316406 -3.773438 2.203125 -3.828125 C 2.085938 -3.890625 1.957031 -3.921875 1.8125 -3.921875 C 1.570312 -3.921875 1.378906 -3.851562 1.234375 -3.71875 C 1.097656 -3.59375 1.03125 -3.414062 1.03125 -3.1875 C 1.03125 -2.96875 1.097656 -2.796875 1.234375 -2.671875 C 1.378906 -2.546875 1.570312 -2.484375 1.8125 -2.484375 Z M 1.8125 -0.375 C 2.113281 -0.375 2.347656 -0.445312 2.515625 -0.59375 C 2.679688 -0.738281 2.765625 -0.941406 2.765625 -1.203125 C 2.765625 -1.460938 2.679688 -1.664062 2.515625 -1.8125 C 2.347656 -1.96875 2.113281 -2.046875 1.8125 -2.046875 C 1.5 -2.046875 1.257812 -1.96875 1.09375 -1.8125 C 0.9375 -1.664062 0.859375 -1.460938 0.859375 -1.203125 C 0.859375 -0.941406 0.9375 -0.738281 1.09375 -0.59375 C 1.257812 -0.445312 1.5 -0.375 1.8125 -0.375 Z M 1.8125 -0.375 "/></g></g></g><g clip-path="url(#00f17b5e50)"><g clip-path="url(#c2a2aa086a)"><path stroke-linecap="butt" transform="matrix(0.748661, 0, 0, 0.748661, 148.33239, 129.379525)" fill="none" stroke-linejoin="miter" d="M 20.343141 -0.000826643 C 9.109539 -0.000826643 -0.000479583 9.109192 -0.000479583 20.342794 C -0.000479583 31.581614 9.109539 40.686414 20.343141 40.686414 C 31.576743 40.686414 40.686761 31.581614 40.686761 20.342794 C 40.686761 9.109192 31.576743 -0.000826643 20.343141 -0.000826643 Z M 20.343141 -0.000826643 " stroke="#000000" stroke-width="2" stroke-opacity="1" stroke-miterlimit="4"/></g></g><g fill="#000000" fill-opacity="1"><g transform="translate(162.077333, 146.598721)"><g><path d="M 1.15625 0 L 0.671875 0 L 2.265625 -3.78125 L 2.234375 -3.84375 L 0.15625 -3.84375 L 0.15625 -4.265625 L 2.765625 -4.265625 L 2.765625 -3.8125 Z M 1.15625 0 "/></g></g></g><g clip-path="url(#aa5c3b6935)"><g clip-path="url(#311a04d46c)"><path stroke-linecap="butt" transform="matrix(0.748661, 0, 0, 0.748661, 148.33239, 167.332147)" fill="none" stroke-linejoin="miter" d="M 20.343141 -0.000154027 C 9.109539 -0.000154027 -0.000479583 9.109864 -0.000479583 20.343466 C -0.000479583 31.577069 9.109539 40.687087 20.343141 40.687087 C 31.576743 40.687087 40.686761 31.577069 40.686761 20.343466 C 40.686761 9.109864 31.576743 -0.000154027 20.343141 -0.000154027 Z M 20.343141 -0.000154027 " stroke="#000000" stroke-width="2" stroke-opacity="1" stroke-miterlimit="4"/></g></g><g fill="#000000" fill-opacity="1"><g transform="translate(161.632815, 184.551342)"><g><path d="M 2.046875 0.0625 C 1.742188 0.0625 1.472656 -0.0078125 1.234375 -0.15625 C 0.992188 -0.300781 0.800781 -0.535156 0.65625 -0.859375 C 0.507812 -1.191406 0.4375 -1.617188 0.4375 -2.140625 C 0.4375 -2.640625 0.507812 -3.050781 0.65625 -3.375 C 0.800781 -3.707031 0.992188 -3.945312 1.234375 -4.09375 C 1.484375 -4.25 1.769531 -4.328125 2.09375 -4.328125 C 2.632812 -4.328125 3.035156 -4.160156 3.296875 -3.828125 L 3.046875 -3.5 L 2.984375 -3.5 C 2.765625 -3.757812 2.46875 -3.890625 2.09375 -3.890625 C 1.71875 -3.890625 1.429688 -3.75 1.234375 -3.46875 C 1.046875 -3.1875 0.953125 -2.738281 0.953125 -2.125 L 1.015625 -2.109375 C 1.128906 -2.347656 1.28125 -2.523438 1.46875 -2.640625 C 1.65625 -2.765625 1.882812 -2.828125 2.15625 -2.828125 C 2.425781 -2.828125 2.660156 -2.769531 2.859375 -2.65625 C 3.054688 -2.539062 3.207031 -2.375 3.3125 -2.15625 C 3.414062 -1.9375 3.46875 -1.679688 3.46875 -1.390625 C 3.46875 -1.097656 3.410156 -0.84375 3.296875 -0.625 C 3.179688 -0.40625 3.015625 -0.234375 2.796875 -0.109375 C 2.578125 0.00390625 2.328125 0.0625 2.046875 0.0625 Z M 2.046875 -0.390625 C 2.328125 -0.390625 2.546875 -0.472656 2.703125 -0.640625 C 2.859375 -0.816406 2.9375 -1.066406 2.9375 -1.390625 C 2.9375 -1.710938 2.859375 -1.957031 2.703125 -2.125 C 2.546875 -2.300781 2.328125 -2.390625 2.046875 -2.390625 C 1.847656 -2.390625 1.675781 -2.347656 1.53125 -2.265625 C 1.394531 -2.191406 1.285156 -2.078125 1.203125 -1.921875 C 1.128906 -1.773438 1.09375 -1.597656 1.09375 -1.390625 C 1.09375 -1.179688 1.128906 -1 1.203125 -0.84375 C 1.285156 -0.695312 1.394531 -0.582031 1.53125 -0.5 C 1.675781 -0.425781 1.847656 -0.390625 2.046875 -0.390625 Z M 2.046875 -0.390625 "/></g></g></g><g clip-path="url(#e80d458335)"><path stroke-linecap="butt" transform="matrix(0, 0.748661, -0.748661, 0, 389.057257, 83.363893)" fill="none" stroke-linejoin="miter" d="M -0.000816877 -0.00178602 L 61.447452 -0.00178602 L 61.447452 42.235094 L -0.000816877 42.235094 Z M -0.000816877 -0.00178602 " stroke="#000000" stroke-width="2" stroke-opacity="1" stroke-miterlimit="4"/></g><g fill="#000000" fill-opacity="1"><g transform="translate(370.34074, 104.335684)"><g><path d="M -0.078125 1.96875 C -0.078125 1.488281 0.03125 1.101562 0.25 0.8125 C 0.46875 0.53125 0.769531 0.347656 1.15625 0.265625 L 1.359375 0.703125 L 1.34375 0.78125 C 1.050781 0.863281 0.828125 0.992188 0.671875 1.171875 C 0.523438 1.359375 0.453125 1.625 0.453125 1.96875 C 0.453125 2.320312 0.53125 2.59375 0.6875 2.78125 C 0.851562 2.96875 1.09375 3.0625 1.40625 3.0625 C 1.71875 3.0625 1.953125 2.96875 2.109375 2.78125 C 2.273438 2.59375 2.359375 2.296875 2.359375 1.890625 L 2.359375 1.34375 L 2.84375 1.34375 L 2.84375 1.828125 C 2.84375 2.140625 2.921875 2.390625 3.078125 2.578125 C 3.234375 2.765625 3.453125 2.859375 3.734375 2.859375 C 4.003906 2.859375 4.207031 2.773438 4.34375 2.609375 C 4.476562 2.453125 4.546875 2.226562 4.546875 1.9375 C 4.546875 1.4375 4.347656 1.082031 3.953125 0.875 L 3.9375 0.796875 L 4.296875 0.46875 C 4.523438 0.601562 4.707031 0.796875 4.84375 1.046875 C 4.988281 1.296875 5.0625 1.59375 5.0625 1.9375 C 5.0625 2.257812 5.007812 2.53125 4.90625 2.75 C 4.8125 2.976562 4.671875 3.148438 4.484375 3.265625 C 4.296875 3.378906 4.070312 3.4375 3.8125 3.4375 C 3.5625 3.4375 3.34375 3.363281 3.15625 3.21875 C 2.976562 3.082031 2.835938 2.894531 2.734375 2.65625 L 2.65625 2.65625 C 2.570312 2.988281 2.421875 3.238281 2.203125 3.40625 C 1.992188 3.570312 1.726562 3.65625 1.40625 3.65625 C 0.9375 3.65625 0.570312 3.515625 0.3125 3.234375 C 0.0507812 2.953125 -0.078125 2.53125 -0.078125 1.96875 Z M -0.078125 1.96875 "/></g></g></g><g clip-path="url(#bc16ddd2e1)"><path stroke-linecap="butt" transform="matrix(0.748661, 0, 0, 0.748661, 281.828607, 16.06974)" fill="none" stroke-linejoin="miter" d="M -0.000643244 0.000765229 L 69.670643 0.000765229 L 69.670643 42.232428 L -0.000643244 42.232428 Z M -0.000643244 0.000765229 " stroke="#000000" stroke-width="2" stroke-opacity="1" stroke-miterlimit="4"/></g><g fill="#000000" fill-opacity="1"><g transform="translate(305.79145, 34.786257)"><g><path d="M 3.125 0 L 2.5625 0 L 2.5625 -1.1875 L 0.234375 -1.1875 L 0.234375 -1.65625 L 2.421875 -4.984375 L 3.125 -4.984375 L 3.125 -1.65625 L 3.984375 -1.65625 L 3.984375 -1.1875 L 3.125 -1.1875 Z M 0.921875 -1.734375 L 0.953125 -1.65625 L 2.5625 -1.65625 L 2.5625 -4.171875 L 2.484375 -4.1875 Z M 0.921875 -1.734375 "/></g></g></g><g clip-path="url(#7084710da4)"><path stroke-linecap="butt" transform="matrix(0.748661, 0, 0, 0.748661, 214.6204, 16.06974)" fill="none" stroke-linejoin="miter" d="M 0.000926219 0.000765229 L 75.583811 0.000765229 L 75.583811 42.232428 L 0.000926219 42.232428 Z M 0.000926219 0.000765229 " stroke="#000000" stroke-width="2" stroke-opacity="1" stroke-miterlimit="4"/></g><g fill="#000000" fill-opacity="1"><g transform="translate(240.843192, 34.786257)"><g><path d="M 2.046875 0.078125 C 1.585938 0.078125 1.21875 -0.0234375 0.9375 -0.234375 C 0.65625 -0.441406 0.472656 -0.738281 0.390625 -1.125 L 0.828125 -1.3125 L 0.90625 -1.296875 C 0.957031 -1.109375 1.03125 -0.953125 1.125 -0.828125 C 1.21875 -0.703125 1.335938 -0.609375 1.484375 -0.546875 C 1.640625 -0.484375 1.828125 -0.453125 2.046875 -0.453125 C 2.390625 -0.453125 2.65625 -0.550781 2.84375 -0.75 C 3.03125 -0.957031 3.125 -1.253906 3.125 -1.640625 C 3.125 -2.023438 3.03125 -2.316406 2.84375 -2.515625 C 2.65625 -2.722656 2.398438 -2.828125 2.078125 -2.828125 C 1.828125 -2.828125 1.625 -2.773438 1.46875 -2.671875 C 1.320312 -2.578125 1.1875 -2.425781 1.0625 -2.21875 L 0.59375 -2.265625 L 0.6875 -4.984375 L 3.484375 -4.984375 L 3.484375 -4.484375 L 1.203125 -4.484375 L 1.140625 -2.828125 L 1.21875 -2.828125 C 1.332031 -2.992188 1.472656 -3.117188 1.640625 -3.203125 C 1.816406 -3.285156 2.019531 -3.328125 2.25 -3.328125 C 2.550781 -3.328125 2.8125 -3.257812 3.03125 -3.125 C 3.257812 -3 3.429688 -2.804688 3.546875 -2.546875 C 3.671875 -2.296875 3.734375 -1.992188 3.734375 -1.640625 C 3.734375 -1.285156 3.660156 -0.976562 3.515625 -0.71875 C 3.378906 -0.457031 3.179688 -0.257812 2.921875 -0.125 C 2.671875 0.0078125 2.378906 0.078125 2.046875 0.078125 Z M 2.046875 0.078125 "/></g></g></g><g clip-path="url(#7a19e7b01e)"><path stroke-linecap="butt" transform="matrix(0, 0.748661, -0.748661, 0, 389.06109, 144.615853)" fill="none" stroke-linejoin="miter" d="M 0.00178266 -0.00188368 L 60.672622 -0.00188368 L 60.672622 42.234997 L 0.00178266 42.234997 Z M 0.00178266 -0.00188368 " stroke="#000000" stroke-width="2" stroke-opacity="1" stroke-miterlimit="4"/></g><g fill="#000000" fill-opacity="1"><g transform="translate(370.344573, 165.408454)"><g><path d="M 0.234375 0.296875 C 0.503906 0.296875 0.722656 0.328125 0.890625 0.390625 C 1.054688 0.453125 1.210938 0.554688 1.359375 0.703125 C 1.503906 0.847656 1.695312 1.078125 1.9375 1.390625 L 2.328125 1.9375 C 2.472656 2.144531 2.609375 2.3125 2.734375 2.4375 C 2.859375 2.5625 2.992188 2.660156 3.140625 2.734375 C 3.285156 2.804688 3.453125 2.84375 3.640625 2.84375 C 3.929688 2.84375 4.148438 2.765625 4.296875 2.609375 C 4.453125 2.453125 4.53125 2.207031 4.53125 1.875 C 4.53125 1.613281 4.46875 1.378906 4.34375 1.171875 C 4.21875 0.972656 4.046875 0.8125 3.828125 0.6875 L 3.8125 0.609375 L 4.1875 0.25 C 4.457031 0.425781 4.671875 0.648438 4.828125 0.921875 C 4.984375 1.191406 5.0625 1.507812 5.0625 1.875 C 5.0625 2.226562 5 2.519531 4.875 2.75 C 4.757812 2.988281 4.59375 3.164062 4.375 3.28125 C 4.164062 3.394531 3.921875 3.453125 3.640625 3.453125 C 3.410156 3.453125 3.195312 3.40625 3 3.3125 C 2.8125 3.21875 2.632812 3.082031 2.46875 2.90625 C 2.300781 2.738281 2.125 2.523438 1.9375 2.265625 L 1.53125 1.71875 C 1.375 1.507812 1.238281 1.347656 1.125 1.234375 C 1.019531 1.128906 0.914062 1.050781 0.8125 1 C 0.71875 0.945312 0.609375 0.921875 0.484375 0.921875 L 0.484375 3.453125 L 0 3.453125 L 0 0.296875 Z M 0.234375 0.296875 "/></g></g></g><g clip-path="url(#cffb34c7dd)"><path stroke-linecap="butt" transform="matrix(0.748661, 0, 0, 0.748661, 307.920454, 205.023966)" fill="none" stroke-linejoin="miter" d="M 0.00189759 -0.000705613 L 81.788568 -0.000705613 L 81.788568 42.236175 L 0.00189759 42.236175 Z M 0.00189759 -0.000705613 " stroke="#000000" stroke-width="2" stroke-opacity="1" stroke-miterlimit="4"/></g><g fill="#000000" fill-opacity="1"><g transform="translate(336.676365, 223.740483)"><g><path d="M 0.359375 0 L 0.359375 -0.484375 L 1.71875 -0.484375 L 1.71875 -4.296875 L 1.640625 -4.3125 C 1.421875 -4.207031 1.226562 -4.125 1.0625 -4.0625 C 0.894531 -4.007812 0.679688 -3.953125 0.421875 -3.890625 L 0.421875 -4.4375 C 0.679688 -4.488281 0.9375 -4.5625 1.1875 -4.65625 C 1.4375 -4.75 1.660156 -4.859375 1.859375 -4.984375 L 2.28125 -4.984375 L 2.28125 -0.484375 L 3.5 -0.484375 L 3.5 0 Z M 0.359375 0 "/></g></g></g><g clip-path="url(#d9a3468935)"><g transform="matrix(1, 0, 0, 1, 188, 74)"><g clip-path="url(#d5a1f3c9f0)"><g clip-path="url(#4e2f718753)"><path fill="#050a30" d="M 0.105469 140.148438 L 0.105469 0.65625 L 21.386719 0.65625 L 21.386719 140.148438 Z M 0.105469 140.148438 " fill-opacity="1" fill-rule="nonzero"/></g></g></g></g><g clip-path="url(#f2c2854b98)"><g clip-path="url(#f4d1521af8)"><g transform="matrix(1, 0, 0, 1, 360, -0.000000000000026729)"><g clip-path="url(#aafedd7f69)"><g clip-path="url(#983c003bc7)"><g clip-path="url(#783dbcebcd)"><path fill="#d9d9d9" d="M 0.476562 0.140625 L 57.660156 0.140625 L 57.660156 57.328125 L 0.476562 57.328125 Z M 0.476562 0.140625 " fill-opacity="1" fill-rule="nonzero"/></g></g></g></g></g></g><g fill="#000000" fill-opacity="1"><g transform="translate(384.537043, 31.584817)"><g><path d="M 2.359375 -4.984375 C 2.867188 -4.984375 3.304688 -4.890625 3.671875 -4.703125 C 4.035156 -4.523438 4.3125 -4.25 4.5 -3.875 C 4.695312 -3.507812 4.796875 -3.050781 4.796875 -2.5 C 4.796875 -1.9375 4.695312 -1.46875 4.5 -1.09375 C 4.3125 -0.726562 4.035156 -0.453125 3.671875 -0.265625 C 3.304688 -0.0859375 2.867188 0 2.359375 0 L 0.75 0 L 0.75 -4.984375 Z M 2.3125 -0.5 C 2.726562 -0.5 3.070312 -0.5625 3.34375 -0.6875 C 3.613281 -0.820312 3.816406 -1.035156 3.953125 -1.328125 C 4.097656 -1.617188 4.171875 -2.007812 4.171875 -2.5 C 4.171875 -2.976562 4.097656 -3.363281 3.953125 -3.65625 C 3.816406 -3.945312 3.613281 -4.15625 3.34375 -4.28125 C 3.070312 -4.414062 2.726562 -4.484375 2.3125 -4.484375 L 1.34375 -4.484375 L 1.34375 -0.5 Z M 2.3125 -0.5 "/></g></g></g><g fill="#000000" fill-opacity="1"><g transform="translate(389.706521, 31.584817)"><g><path d="M 1.640625 0.078125 C 1.398438 0.078125 1.175781 0.0390625 0.96875 -0.03125 C 0.757812 -0.113281 0.582031 -0.21875 0.4375 -0.34375 C 0.300781 -0.46875 0.195312 -0.609375 0.125 -0.765625 L 0.4375 -1.15625 L 0.515625 -1.15625 C 0.617188 -0.945312 0.765625 -0.78125 0.953125 -0.65625 C 1.148438 -0.53125 1.378906 -0.46875 1.640625 -0.46875 C 1.859375 -0.46875 2.035156 -0.5 2.171875 -0.5625 C 2.304688 -0.632812 2.40625 -0.75 2.46875 -0.90625 C 2.539062 -1.070312 2.578125 -1.289062 2.578125 -1.5625 L 2.578125 -4.984375 L 3.15625 -4.984375 L 3.15625 -1.5625 C 3.15625 -1 3.03125 -0.582031 2.78125 -0.3125 C 2.53125 -0.0507812 2.148438 0.078125 1.640625 0.078125 Z M 1.640625 0.078125 "/></g></g></g><g fill="#000000" fill-opacity="1"><g transform="translate(238.169011, 133.871482)"><g><path d="M 4.0625 -8.5625 C 4.925781 -8.5625 5.671875 -8.40625 6.296875 -8.09375 C 6.921875 -7.78125 7.398438 -7.304688 7.734375 -6.671875 C 8.066406 -6.035156 8.234375 -5.238281 8.234375 -4.28125 C 8.234375 -3.320312 8.066406 -2.523438 7.734375 -1.890625 C 7.398438 -1.253906 6.921875 -0.78125 6.296875 -0.46875 C 5.671875 -0.15625 4.925781 0 4.0625 0 L 1.296875 0 L 1.296875 -8.5625 Z M 3.96875 -0.859375 C 4.675781 -0.859375 5.265625 -0.96875 5.734375 -1.1875 C 6.203125 -1.40625 6.554688 -1.765625 6.796875 -2.265625 C 7.035156 -2.773438 7.15625 -3.445312 7.15625 -4.28125 C 7.15625 -5.113281 7.035156 -5.78125 6.796875 -6.28125 C 6.554688 -6.78125 6.203125 -7.140625 5.734375 -7.359375 C 5.265625 -7.585938 4.675781 -7.703125 3.96875 -7.703125 L 2.296875 -7.703125 L 2.296875 -0.859375 Z M 3.96875 -0.859375 "/></g></g><g transform="translate(247.258219, 133.871482)"><g><path d="M 2.65625 0.125 C 2.019531 0.125 1.523438 -0.0390625 1.171875 -0.375 C 0.816406 -0.707031 0.640625 -1.179688 0.640625 -1.796875 C 0.640625 -2.179688 0.71875 -2.503906 0.875 -2.765625 C 1.03125 -3.023438 1.273438 -3.238281 1.609375 -3.40625 C 1.941406 -3.570312 2.375 -3.703125 2.90625 -3.796875 C 3.375 -3.867188 3.726562 -3.953125 3.96875 -4.046875 C 4.21875 -4.148438 4.382812 -4.257812 4.46875 -4.375 C 4.550781 -4.5 4.59375 -4.65625 4.59375 -4.84375 C 4.59375 -5.132812 4.488281 -5.359375 4.28125 -5.515625 C 4.082031 -5.671875 3.765625 -5.75 3.328125 -5.75 C 2.910156 -5.75 2.550781 -5.664062 2.25 -5.5 C 1.945312 -5.34375 1.671875 -5.101562 1.421875 -4.78125 L 1.3125 -4.78125 L 0.84375 -5.4375 C 1.113281 -5.789062 1.457031 -6.066406 1.875 -6.265625 C 2.300781 -6.472656 2.785156 -6.578125 3.328125 -6.578125 C 4.085938 -6.578125 4.644531 -6.410156 5 -6.078125 C 5.363281 -5.742188 5.546875 -5.28125 5.546875 -4.6875 L 5.546875 -1.265625 C 5.546875 -0.910156 5.695312 -0.734375 6 -0.734375 C 6.101562 -0.734375 6.203125 -0.75 6.296875 -0.78125 L 6.375 -0.765625 L 6.484375 -0.09375 C 6.421875 -0.0507812 6.328125 -0.0195312 6.203125 0 C 6.085938 0.03125 5.972656 0.046875 5.859375 0.046875 C 5.503906 0.046875 5.234375 -0.03125 5.046875 -0.1875 C 4.867188 -0.34375 4.753906 -0.570312 4.703125 -0.875 L 4.578125 -0.890625 C 4.398438 -0.546875 4.15625 -0.289062 3.84375 -0.125 C 3.53125 0.0390625 3.132812 0.125 2.65625 0.125 Z M 2.875 -0.640625 C 3.226562 -0.640625 3.535156 -0.722656 3.796875 -0.890625 C 4.066406 -1.054688 4.269531 -1.285156 4.40625 -1.578125 C 4.550781 -1.878906 4.625 -2.226562 4.625 -2.625 L 4.625 -3.453125 L 4.515625 -3.46875 C 4.367188 -3.363281 4.191406 -3.273438 3.984375 -3.203125 C 3.773438 -3.140625 3.488281 -3.082031 3.125 -3.03125 C 2.75 -2.976562 2.445312 -2.898438 2.21875 -2.796875 C 2 -2.691406 1.84375 -2.554688 1.75 -2.390625 C 1.65625 -2.234375 1.609375 -2.035156 1.609375 -1.796875 C 1.609375 -1.421875 1.71875 -1.132812 1.9375 -0.9375 C 2.164062 -0.738281 2.476562 -0.640625 2.875 -0.640625 Z M 2.875 -0.640625 "/></g></g><g transform="translate(253.931827, 133.871482)"><g><path d="M 1.125 0 L 1.125 -6.453125 L 2.03125 -6.453125 L 2.03125 -5.4375 L 2.15625 -5.40625 C 2.363281 -5.789062 2.632812 -6.082031 2.96875 -6.28125 C 3.300781 -6.476562 3.710938 -6.578125 4.203125 -6.578125 C 4.972656 -6.578125 5.53125 -6.378906 5.875 -5.984375 C 6.226562 -5.585938 6.40625 -4.976562 6.40625 -4.15625 L 6.40625 0 L 5.453125 0 L 5.453125 -4.125 C 5.453125 -4.519531 5.398438 -4.832031 5.296875 -5.0625 C 5.203125 -5.300781 5.050781 -5.472656 4.84375 -5.578125 C 4.632812 -5.691406 4.359375 -5.75 4.015625 -5.75 C 3.429688 -5.75 2.960938 -5.554688 2.609375 -5.171875 C 2.253906 -4.785156 2.078125 -4.164062 2.078125 -3.3125 L 2.078125 0 Z M 1.125 0 "/></g></g><g transform="translate(261.359945, 133.871482)"><g><path d="M 3.703125 0.125 C 3.128906 0.125 2.617188 -0.00390625 2.171875 -0.265625 C 1.722656 -0.523438 1.363281 -0.90625 1.09375 -1.40625 C 0.832031 -1.914062 0.703125 -2.519531 0.703125 -3.21875 C 0.703125 -3.925781 0.832031 -4.53125 1.09375 -5.03125 C 1.363281 -5.539062 1.722656 -5.925781 2.171875 -6.1875 C 2.617188 -6.445312 3.128906 -6.578125 3.703125 -6.578125 C 4.390625 -6.578125 4.929688 -6.445312 5.328125 -6.1875 C 5.734375 -5.9375 6.023438 -5.59375 6.203125 -5.15625 L 5.5625 -4.6875 L 5.4375 -4.6875 C 5.257812 -5.039062 5.035156 -5.300781 4.765625 -5.46875 C 4.492188 -5.632812 4.140625 -5.71875 3.703125 -5.71875 C 3.304688 -5.71875 2.957031 -5.625 2.65625 -5.4375 C 2.351562 -5.25 2.117188 -4.96875 1.953125 -4.59375 C 1.785156 -4.21875 1.703125 -3.757812 1.703125 -3.21875 C 1.703125 -2.6875 1.785156 -2.234375 1.953125 -1.859375 C 2.128906 -1.484375 2.363281 -1.203125 2.65625 -1.015625 C 2.957031 -0.828125 3.304688 -0.734375 3.703125 -0.734375 C 4.148438 -0.734375 4.519531 -0.832031 4.8125 -1.03125 C 5.113281 -1.238281 5.347656 -1.5625 5.515625 -2 L 5.640625 -2 L 6.265625 -1.625 C 6.097656 -1.082031 5.796875 -0.65625 5.359375 -0.34375 C 4.929688 -0.03125 4.378906 0.125 3.703125 0.125 Z M 3.703125 0.125 "/></g></g><g transform="translate(268.010158, 133.871482)"><g><path d="M 6.15625 -3 L 1.71875 -3 C 1.738281 -2.21875 1.921875 -1.644531 2.265625 -1.28125 C 2.617188 -0.914062 3.101562 -0.734375 3.71875 -0.734375 C 4.175781 -0.734375 4.546875 -0.8125 4.828125 -0.96875 C 5.109375 -1.132812 5.328125 -1.394531 5.484375 -1.75 L 5.609375 -1.75 L 6.234375 -1.375 C 6.046875 -0.90625 5.742188 -0.535156 5.328125 -0.265625 C 4.921875 -0.00390625 4.382812 0.125 3.71875 0.125 C 3.09375 0.125 2.554688 0.00390625 2.109375 -0.234375 C 1.660156 -0.484375 1.3125 -0.859375 1.0625 -1.359375 C 0.820312 -1.859375 0.703125 -2.476562 0.703125 -3.21875 C 0.703125 -3.957031 0.828125 -4.578125 1.078125 -5.078125 C 1.335938 -5.578125 1.6875 -5.953125 2.125 -6.203125 C 2.570312 -6.453125 3.082031 -6.578125 3.65625 -6.578125 C 4.476562 -6.578125 5.125 -6.34375 5.59375 -5.875 C 6.0625 -5.40625 6.296875 -4.710938 6.296875 -3.796875 C 6.296875 -3.441406 6.285156 -3.203125 6.265625 -3.078125 Z M 5.359375 -3.796875 C 5.335938 -4.484375 5.179688 -4.984375 4.890625 -5.296875 C 4.609375 -5.609375 4.195312 -5.765625 3.65625 -5.765625 C 3.09375 -5.765625 2.648438 -5.609375 2.328125 -5.296875 C 2.003906 -4.984375 1.804688 -4.484375 1.734375 -3.796875 Z M 5.359375 -3.796875 "/></g></g><g transform="translate(274.888478, 133.871482)"><g/></g><g transform="translate(277.824631, 133.871482)"><g><path d="M 6.3125 -8.5625 L 6.3125 -7.71875 L 2.296875 -7.71875 L 2.296875 -4.609375 L 5.921875 -4.609375 L 5.921875 -3.78125 L 2.296875 -3.78125 L 2.296875 0 L 1.296875 0 L 1.296875 -8.5625 Z M 6.3125 -8.5625 "/></g></g><g transform="translate(284.60352, 133.871482)"><g><path d="M 2.5625 0.125 C 2.113281 0.125 1.753906 -0.00390625 1.484375 -0.265625 C 1.222656 -0.523438 1.09375 -0.910156 1.09375 -1.421875 L 1.09375 -9.046875 L 2.046875 -9.046875 L 2.046875 -1.5 C 2.046875 -1.226562 2.097656 -1.03125 2.203125 -0.90625 C 2.304688 -0.789062 2.46875 -0.734375 2.6875 -0.734375 C 2.820312 -0.734375 2.957031 -0.753906 3.09375 -0.796875 L 3.171875 -0.765625 L 3.28125 -0.015625 C 3.21875 0.0234375 3.117188 0.0546875 2.984375 0.078125 C 2.859375 0.109375 2.71875 0.125 2.5625 0.125 Z M 2.5625 0.125 "/></g></g><g transform="translate(288.112867, 133.871482)"><g><path d="M 3.703125 0.125 C 3.097656 0.125 2.566406 -0.00390625 2.109375 -0.265625 C 1.660156 -0.523438 1.3125 -0.90625 1.0625 -1.40625 C 0.820312 -1.90625 0.703125 -2.507812 0.703125 -3.21875 C 0.703125 -3.9375 0.820312 -4.546875 1.0625 -5.046875 C 1.3125 -5.554688 1.660156 -5.9375 2.109375 -6.1875 C 2.566406 -6.445312 3.097656 -6.578125 3.703125 -6.578125 C 4.304688 -6.578125 4.832031 -6.445312 5.28125 -6.1875 C 5.738281 -5.9375 6.085938 -5.554688 6.328125 -5.046875 C 6.578125 -4.546875 6.703125 -3.9375 6.703125 -3.21875 C 6.703125 -2.507812 6.578125 -1.90625 6.328125 -1.40625 C 6.085938 -0.90625 5.738281 -0.523438 5.28125 -0.265625 C 4.832031 -0.00390625 4.304688 0.125 3.703125 0.125 Z M 3.703125 -0.734375 C 4.347656 -0.734375 4.835938 -0.9375 5.171875 -1.34375 C 5.515625 -1.75 5.6875 -2.375 5.6875 -3.21875 C 5.6875 -4.070312 5.515625 -4.703125 5.171875 -5.109375 C 4.835938 -5.515625 4.347656 -5.71875 3.703125 -5.71875 C 3.054688 -5.71875 2.5625 -5.515625 2.21875 -5.109375 C 1.875 -4.703125 1.703125 -4.070312 1.703125 -3.21875 C 1.703125 -2.375 1.875 -1.75 2.21875 -1.34375 C 2.5625 -0.9375 3.054688 -0.734375 3.703125 -0.734375 Z M 3.703125 -0.734375 "/></g></g><g transform="translate(295.517589, 133.871482)"><g><path d="M 3.703125 0.125 C 3.097656 0.125 2.566406 -0.00390625 2.109375 -0.265625 C 1.660156 -0.523438 1.3125 -0.90625 1.0625 -1.40625 C 0.820312 -1.90625 0.703125 -2.507812 0.703125 -3.21875 C 0.703125 -3.9375 0.820312 -4.546875 1.0625 -5.046875 C 1.3125 -5.554688 1.660156 -5.9375 2.109375 -6.1875 C 2.566406 -6.445312 3.097656 -6.578125 3.703125 -6.578125 C 4.304688 -6.578125 4.832031 -6.445312 5.28125 -6.1875 C 5.738281 -5.9375 6.085938 -5.554688 6.328125 -5.046875 C 6.578125 -4.546875 6.703125 -3.9375 6.703125 -3.21875 C 6.703125 -2.507812 6.578125 -1.90625 6.328125 -1.40625 C 6.085938 -0.90625 5.738281 -0.523438 5.28125 -0.265625 C 4.832031 -0.00390625 4.304688 0.125 3.703125 0.125 Z M 3.703125 -0.734375 C 4.347656 -0.734375 4.835938 -0.9375 5.171875 -1.34375 C 5.515625 -1.75 5.6875 -2.375 5.6875 -3.21875 C 5.6875 -4.070312 5.515625 -4.703125 5.171875 -5.109375 C 4.835938 -5.515625 4.347656 -5.71875 3.703125 -5.71875 C 3.054688 -5.71875 2.5625 -5.515625 2.21875 -5.109375 C 1.875 -4.703125 1.703125 -4.070312 1.703125 -3.21875 C 1.703125 -2.375 1.875 -1.75 2.21875 -1.34375 C 2.5625 -0.9375 3.054688 -0.734375 3.703125 -0.734375 Z M 3.703125 -0.734375 "/></g></g><g transform="translate(302.922311, 133.871482)"><g><path d="M 1.125 0 L 1.125 -6.453125 L 2.03125 -6.453125 L 2.03125 -5.4375 L 2.15625 -5.40625 C 2.457031 -6.144531 3.019531 -6.515625 3.84375 -6.515625 C 4.289062 -6.515625 4.625 -6.429688 4.84375 -6.265625 L 4.59375 -5.46875 L 4.484375 -5.4375 C 4.234375 -5.5625 3.96875 -5.625 3.6875 -5.625 C 3.164062 -5.625 2.765625 -5.429688 2.484375 -5.046875 C 2.210938 -4.660156 2.078125 -4.035156 2.078125 -3.171875 L 2.078125 0 Z M 1.125 0 "/></g></g></g><g clip-path="url(#2c1ea78d53)"><path stroke-linecap="butt" transform="matrix(0, 0.748661, -0.748661, 0, 61.615141, 103.295456)" fill="none" stroke-linejoin="miter" d="M 0.00189507 0.00248379 L 69.667968 0.00248379 L 69.667968 35.451203 L 0.00189507 35.451203 Z M 0.00189507 0.00248379 " stroke="#000000" stroke-width="2" stroke-opacity="1" stroke-miterlimit="4"/></g><g fill="#000000" fill-opacity="1"><g transform="translate(45.893266, 127.12923)"><g><path d="M -0.078125 2.109375 C -0.078125 1.671875 0.0195312 1.316406 0.21875 1.046875 C 0.414062 0.785156 0.6875 0.617188 1.03125 0.546875 L 1.234375 0.96875 L 1.21875 1.046875 C 0.96875 1.128906 0.773438 1.253906 0.640625 1.421875 C 0.515625 1.585938 0.453125 1.816406 0.453125 2.109375 C 0.453125 2.523438 0.625 2.84375 0.96875 3.0625 C 1.320312 3.28125 1.859375 3.390625 2.578125 3.390625 L 2.59375 3.3125 C 2.3125 3.175781 2.097656 3 1.953125 2.78125 C 1.816406 2.570312 1.75 2.300781 1.75 1.96875 C 1.75 1.65625 1.816406 1.382812 1.953125 1.15625 C 2.085938 0.925781 2.28125 0.75 2.53125 0.625 C 2.78125 0.5 3.066406 0.4375 3.390625 0.4375 C 3.722656 0.4375 4.015625 0.503906 4.265625 0.640625 C 4.515625 0.785156 4.707031 0.984375 4.84375 1.234375 C 4.988281 1.484375 5.0625 1.773438 5.0625 2.109375 C 5.0625 2.691406 4.863281 3.144531 4.46875 3.46875 C 4.070312 3.800781 3.429688 3.96875 2.546875 3.96875 C 1.953125 3.96875 1.457031 3.890625 1.0625 3.734375 C 0.675781 3.578125 0.390625 3.359375 0.203125 3.078125 C 0.015625 2.804688 -0.078125 2.484375 -0.078125 2.109375 Z M 2.265625 2.109375 C 2.265625 2.328125 2.304688 2.519531 2.390625 2.6875 C 2.484375 2.851562 2.613281 2.984375 2.78125 3.078125 C 2.957031 3.171875 3.160156 3.21875 3.390625 3.21875 C 3.628906 3.21875 3.832031 3.171875 4 3.078125 C 4.175781 2.984375 4.304688 2.851562 4.390625 2.6875 C 4.484375 2.519531 4.53125 2.328125 4.53125 2.109375 C 4.53125 1.773438 4.429688 1.515625 4.234375 1.328125 C 4.046875 1.140625 3.765625 1.046875 3.390625 1.046875 C 3.023438 1.046875 2.742188 1.140625 2.546875 1.328125 C 2.359375 1.515625 2.265625 1.773438 2.265625 2.109375 Z M 2.265625 2.109375 "/></g></g></g></svg>